<svg xmlns="http://www.w3.org/2000/svg" xmlns:xlink="http://www.w3.org/1999/xlink" viewBox="0 0 706.35 390"><defs><symbol id="a" data-name="New Symbol 125" viewBox="0 0 32 16"><path d="M31 8c0 3.85-3.6 7-8 7H9c-4.4 0-8-3.15-8-7s3.6-7 8-7h14c4.4 0 8 3.15 8 7Z" fill="#fff"/><path d="M23 16H9c-5 0-9-3.59-9-8s4-8 9-8h14c5 0 9 3.59 9 8s-4 8-9 8ZM9 2C5.14 2 2 4.69 2 8s3.14 6 7 6h14c3.86 0 7-2.69 7-6s-3.14-6-7-6Z" fill="#0072c6"/></symbol></defs><path fill="#fff" d="M0 0h706.35v390H0z"/><path fill="#fff" d="M376.35 287.58h215v85h-215z"/><path fill="#3c3c41" opacity=".05" d="M376.35 287.58h215v85h-215z"/><path fill="none" stroke="#3c3c41" stroke-miterlimit="10" stroke-width=".25" d="M376.35 287.58h215v85h-215z"/><use width="32" height="16" transform="translate(73.58 22.58)" xlink:href="#a"/><path d="M47.15 70.41c0 3.85-3.6 7-8 7h-14c-4.4 0-8-3.15-8-7s3.6-7 8-7h14c4.4 0 8 3.15 8 7Z" fill="#fff"/><path d="M39.15 78.41h-14c-5 0-9-3.59-9-8s4-8 9-8h14c5 0 9 3.59 9 8s-4.04 8-9 8Zm-14-14c-3.86 0-7 2.69-7 6s3.14 6 7 6h14c3.86 0 7-2.69 7-6s-3.14-6-7-6Z" fill="#76bc2d"/><path fill="#fff" d="M79.78 57.58h110v25h-110z"/><path fill="#5ea0ef" opacity=".5" d="M79.78 57.58h110v25h-110z"/><path fill="none" stroke="#005ba1" stroke-miterlimit="10" d="M89.78 39.15V52.2"/><path fill="#005ba1" d="m86.04 51.1 3.74 6.48 3.74-6.48h-7.48z"/><path fill="#fff" d="M104.78 97.58h110v25h-110z"/><path fill="#5ea0ef" opacity=".5" d="M104.78 97.58h110v25h-110z"/><path fill="none" stroke="#005ba1" stroke-miterlimit="10" d="M114.78 82.89v9.05"/><path fill="#005ba1" d="m111.04 90.85 3.74 6.48 3.74-6.48h-7.48z"/><path fill="none" stroke="#4f4f4f" stroke-miterlimit="10" d="M79.78 70.41H50.91"/><path d="M57.06 66.09a.44.44 0 0 1-.13.62l-5.81 3.7 5.81 3.7a.44.44 0 0 1 .13.62.45.45 0 0 1-.62.14L50 70.79a.44.44 0 0 1-.21-.38A.47.47 0 0 1 50 70l6.44-4a.55.55 0 0 1 .24-.07.45.45 0 0 1 .38.16Z" fill="#4f4f4f"/><path fill="#fff" d="M129.78 137.27h110v25h-110z"/><path fill="#5ea0ef" opacity=".5" d="M129.78 137.27h110v25h-110z"/><path fill="none" stroke="#005ba1" stroke-miterlimit="10" d="M139.78 122.58v9.05"/><path fill="#005ba1" d="m136.04 130.53 3.74 6.48 3.74-6.48h-7.48z"/><path d="M129.78 148.93h-10a5 5 0 0 1-5-5v-20.25" fill="none" stroke="#4f4f4f" stroke-miterlimit="10"/><path d="M119.09 129.83a.45.45 0 0 1-.62-.14l-3.7-5.8-3.69 5.8a.47.47 0 0 1-.63.14.45.45 0 0 1-.13-.62l4.07-6.4a.47.47 0 0 1 .38-.21.44.44 0 0 1 .38.21l4.08 6.4a.42.42 0 0 1 .07.24.43.43 0 0 1-.21.38Z" fill="#4f4f4f"/><path d="M104.35 108.93h-10a5 5 0 0 1-5-5V83.68" fill="none" stroke="#4f4f4f" stroke-miterlimit="10"/><path d="M93.67 89.83a.45.45 0 0 1-.62-.14l-3.7-5.8-3.7 5.8a.45.45 0 1 1-.76-.48l4.11-6.4a.45.45 0 0 1 .76 0l4.08 6.4a.42.42 0 0 1 .07.24.45.45 0 0 1-.24.38Z" fill="#4f4f4f"/><path fill="#fff" d="M154.78 177.58h110v25h-110z"/><path fill="#5ea0ef" opacity=".5" d="M154.78 177.58h110v25h-110z"/><path fill="none" stroke="#005ba1" stroke-miterlimit="10" d="M164.78 162.89v9.05"/><path fill="#005ba1" d="m161.04 170.85 3.74 6.47 3.74-6.47h-7.48z"/><path d="M154.78 189.24h-10a5 5 0 0 1-5-5V164" fill="none" stroke="#4f4f4f" stroke-miterlimit="10"/><path d="M144.09 170.15a.45.45 0 0 1-.62-.14l-3.7-5.81-3.69 5.8a.45.45 0 1 1-.76-.49l4.07-6.4a.47.47 0 0 1 .38-.21.44.44 0 0 1 .38.21l4.08 6.4a.46.46 0 0 1-.14.63Z" fill="#4f4f4f"/><path fill="#fff" d="M179.78 217.27h110v25h-110z"/><path fill="#5ea0ef" opacity=".5" d="M179.78 217.27h110v25h-110z"/><path fill="none" stroke="#005ba1" stroke-miterlimit="10" d="M189.78 202.58v9.05"/><path fill="#005ba1" d="m186.04 210.53 3.74 6.48 3.74-6.48h-7.48z"/><path d="M179.78 228.93h-10a5 5 0 0 1-5-5v-20.25" fill="none" stroke="#4f4f4f" stroke-miterlimit="10"/><path d="M169.09 209.83a.45.45 0 0 1-.62-.14l-3.7-5.8-3.69 5.8a.47.47 0 0 1-.63.14.45.45 0 0 1-.13-.62l4.07-6.4a.47.47 0 0 1 .38-.21.44.44 0 0 1 .38.21l4.08 6.4a.42.42 0 0 1 .07.24.43.43 0 0 1-.21.38Z" fill="#4f4f4f"/><path fill="#fff" d="M204.78 257.58h110v25h-110z"/><path fill="#5ea0ef" opacity=".5" d="M204.78 257.58h110v25h-110z"/><path fill="none" stroke="#005ba1" stroke-miterlimit="10" d="M214.78 242.89v9.05"/><path fill="#005ba1" d="m211.04 250.85 3.74 6.47 3.74-6.47h-7.48z"/><path d="M204.78 269.24h-10a5 5 0 0 1-5-5V244" fill="none" stroke="#4f4f4f" stroke-miterlimit="10"/><path d="M194.09 250.15a.45.45 0 0 1-.62-.14l-3.7-5.81-3.69 5.8a.45.45 0 1 1-.76-.49l4.07-6.4a.47.47 0 0 1 .38-.21.44.44 0 0 1 .38.21l4.08 6.4a.46.46 0 0 1-.14.63Z" fill="#4f4f4f"/><path fill="#fff" d="M229.78 297.89h110v25h-110z"/><path fill="#5ea0ef" opacity=".5" d="M229.78 297.89h110v25h-110z"/><path fill="none" stroke="#005ba1" stroke-miterlimit="10" d="M239.78 283.21v9.05"/><path fill="#005ba1" d="m236.04 291.16 3.74 6.48 3.74-6.48h-7.48z"/><path d="M229.78 309.55h-10a5 5 0 0 1-5-5v-20.24" fill="none" stroke="#4f4f4f" stroke-miterlimit="10"/><path d="M219.09 290.46a.45.45 0 0 1-.62-.14l-3.7-5.81-3.69 5.81a.47.47 0 0 1-.63.14.45.45 0 0 1-.13-.62l4.07-6.4a.47.47 0 0 1 .38-.21.44.44 0 0 1 .38.21l4.08 6.4a.42.42 0 0 1 .07.24.44.44 0 0 1-.21.38Z" fill="#4f4f4f"/><path fill="#fff" d="M254.78 337.58h110v25h-110z"/><path fill="#5ea0ef" opacity=".5" d="M254.78 337.58h110v25h-110z"/><path fill="#fff" d="M386.35 337.08h90v25.5h-90z"/><path fill="#5ea0ef" opacity=".5" d="M386.35 337.08h90v25.5h-90z"/><path fill="#fff" d="M491.35 337.08h90v25.5h-90z"/><path fill="#5ea0ef" opacity=".5" d="M491.35 337.08h90v25.5h-90z"/><path fill="#fff" d="M606.35 337.08h90v25.5h-90z"/><path fill="#5ea0ef" opacity=".5" d="M606.35 337.08h90v25.5h-90z"/><path fill="none" stroke="#005ba1" stroke-miterlimit="10" d="M264.78 322.89v9.05"/><path fill="#005ba1" d="m261.04 330.85 3.74 6.47 3.74-6.47h-7.48z"/><path fill="none" stroke="#005ba1" stroke-miterlimit="10" d="M476.92 349.24h9.05"/><path fill="#005ba1" d="m484.87 352.98 6.48-3.74-6.48-3.74v7.48z"/><path fill="none" stroke="#005ba1" stroke-miterlimit="10" d="M364.78 349.24h16.19"/><path fill="#005ba1" d="m379.87 352.98 6.48-3.74-6.48-3.74v7.48z"/><path fill="none" stroke="#005ba1" stroke-miterlimit="10" d="M581.35 349.24h19.62"/><path fill="#005ba1" d="m599.87 352.98 6.48-3.74-6.48-3.74v7.48z"/><path d="M254.78 349.24h-10a5 5 0 0 1-5-5V324" fill="none" stroke="#4f4f4f" stroke-miterlimit="10"/><path d="M244.09 330.15a.45.45 0 0 1-.62-.14l-3.7-5.81-3.69 5.8a.45.45 0 1 1-.76-.49l4.07-6.4a.47.47 0 0 1 .38-.21.44.44 0 0 1 .38.21l4.08 6.4a.46.46 0 0 1-.14.63Z" fill="#4f4f4f"/><path d="M432.92 362.58v15a5 5 0 0 1-5 5H269.78a5 5 0 0 1-5-5v-15.25" fill="none" stroke="#4f4f4f" stroke-miterlimit="10"/><path d="M269.1 368.48a.45.45 0 0 1-.63-.13l-3.69-5.81-3.7 5.81a.44.44 0 0 1-.62.13.45.45 0 0 1-.14-.62l4.08-6.4a.44.44 0 0 1 .38-.21.47.47 0 0 1 .38.21l4.07 6.4a.46.46 0 0 1-.13.62Z" fill="#4f4f4f"/><path d="M656.35 362.08v15.5a5 5 0 0 1-5 5h-110a5 5 0 0 1-5-5v-15.25" fill="none" stroke="#4f4f4f" stroke-miterlimit="10"/><path d="M540.67 368.48a.44.44 0 0 1-.62-.13l-3.7-5.81-3.7 5.81a.44.44 0 0 1-.62.13.45.45 0 0 1-.14-.62l4.08-6.4a.45.45 0 0 1 .76 0l4.08 6.4a.44.44 0 0 1 .07.24.45.45 0 0 1-.21.38Z" fill="#4f4f4f"/><path d="M536.35 337.58v-10a5 5 0 0 0-5-5h-93.43a5 5 0 0 0-5 5v8.92" fill="none" stroke="#4f4f4f" stroke-miterlimit="10"/><path d="M428.6 330.35a.45.45 0 0 1 .63.13l3.69 5.81 3.7-5.81a.44.44 0 0 1 .62-.13.45.45 0 0 1 .14.62l-4.08 6.4a.44.44 0 0 1-.38.21.47.47 0 0 1-.38-.21l-4.07-6.4a.46.46 0 0 1 .13-.62Z" fill="#4f4f4f"/><g fill="#1e1e1e"><path d="M75.51 16.47h-1.17l-1.41-2.35a5 5 0 0 0-.37-.56 2.27 2.27 0 0 0-.38-.38 1.07 1.07 0 0 0-.41-.21 1.49 1.49 0 0 0-.49-.07h-.81v3.57h-1v-8.4H72a3.64 3.64 0 0 1 1 .14 2.23 2.23 0 0 1 .81.42 1.84 1.84 0 0 1 .53.7 2.28 2.28 0 0 1 .2 1 2.53 2.53 0 0 1-.13.8 2.15 2.15 0 0 1-.38.66 2.37 2.37 0 0 1-.59.49 2.82 2.82 0 0 1-.77.31 2.13 2.13 0 0 1 .37.22 2.56 2.56 0 0 1 .3.28c.09.11.18.24.27.37s.2.3.31.49ZM70.47 9v3h1.34a2.15 2.15 0 0 0 .68-.11 1.61 1.61 0 0 0 .54-.32 1.57 1.57 0 0 0 .36-.51 1.83 1.83 0 0 0 .13-.68 1.32 1.32 0 0 0-.44-1.05A1.88 1.88 0 0 0 71.82 9ZM81 13.71h-4.23a2.19 2.19 0 0 0 .54 1.55 1.86 1.86 0 0 0 1.42.55 3 3 0 0 0 1.86-.67V16a3.52 3.52 0 0 1-2.09.57 2.54 2.54 0 0 1-2-.81 3.33 3.33 0 0 1-.73-2.3 3.29 3.29 0 0 1 .8-2.29 2.56 2.56 0 0 1 2-.88 2.28 2.28 0 0 1 1.82.76 3.19 3.19 0 0 1 .61 2.16Zm-1-.81a2 2 0 0 0-.4-1.3 1.4 1.4 0 0 0-1.1-.46 1.52 1.52 0 0 0-1.15.49 2.16 2.16 0 0 0-.59 1.27ZM87.58 19.23h-1v-3.79a2.14 2.14 0 0 1-2 1.17 2.25 2.25 0 0 1-1.81-.8 3.27 3.27 0 0 1-.68-2.2 3.57 3.57 0 0 1 .75-2.38 2.48 2.48 0 0 1 2-.9 1.89 1.89 0 0 1 1.78 1v-.84h1Zm-1-5.46v-.87a1.73 1.73 0 0 0-.49-1.25 1.61 1.61 0 0 0-1.22-.51 1.66 1.66 0 0 0-1.37.64 2.85 2.85 0 0 0-.5 1.81 2.48 2.48 0 0 0 .49 1.63 1.55 1.55 0 0 0 1.25.59 1.73 1.73 0 0 0 1.35-.58 2.17 2.17 0 0 0 .53-1.46ZM94.38 16.47h-1v-.95a2 2 0 0 1-1.85 1.09c-1.43 0-2.14-.85-2.14-2.55v-3.59h.95v3.44c0 1.26.48 1.9 1.45 1.9a1.49 1.49 0 0 0 1.21-.52 2 2 0 0 0 .45-1.36v-3.46h1ZM101.14 13.71H96.9a2.28 2.28 0 0 0 .54 1.55 1.87 1.87 0 0 0 1.42.55 3 3 0 0 0 1.86-.67V16a3.5 3.5 0 0 1-2.09.57 2.56 2.56 0 0 1-2-.81 3.37 3.37 0 0 1-.73-2.3 3.29 3.29 0 0 1 .8-2.29 2.58 2.58 0 0 1 2-.88 2.27 2.27 0 0 1 1.82.76 3.2 3.2 0 0 1 .65 2.12Zm-1-.81a1.91 1.91 0 0 0-.4-1.3 1.39 1.39 0 0 0-1.1-.46 1.52 1.52 0 0 0-1.15.49 2.22 2.22 0 0 0-.59 1.27ZM102.23 16.26v-1a2.88 2.88 0 0 0 1.73.58c.84 0 1.26-.29 1.26-.85a.7.7 0 0 0-.11-.41 1 1 0 0 0-.29-.29 2.18 2.18 0 0 0-.43-.23l-.54-.22a5.16 5.16 0 0 1-.7-.32 1.74 1.74 0 0 1-.5-.36 1.29 1.29 0 0 1-.31-.46 1.57 1.57 0 0 1-.1-.6 1.44 1.44 0 0 1 .19-.75 1.58 1.58 0 0 1 .52-.54 2.45 2.45 0 0 1 .73-.34 3.49 3.49 0 0 1 .86-.11 3.41 3.41 0 0 1 1.39.27v1a2.78 2.78 0 0 0-1.52-.43 1.83 1.83 0 0 0-.49.06 1.06 1.06 0 0 0-.37.18.66.66 0 0 0-.24.26.7.7 0 0 0-.09.35.8.8 0 0 0 .09.39.82.82 0 0 0 .25.28 1.67 1.67 0 0 0 .4.22l.53.22a6.85 6.85 0 0 1 .71.31 2.44 2.44 0 0 1 .54.37 1.41 1.41 0 0 1 .35.46 1.54 1.54 0 0 1 .12.63 1.5 1.5 0 0 1-.2.77 1.74 1.74 0 0 1-.53.55 2.43 2.43 0 0 1-.75.32 3.76 3.76 0 0 1-.9.1 3.49 3.49 0 0 1-1.6-.41ZM110.47 16.41a1.82 1.82 0 0 1-.9.19c-1 0-1.58-.58-1.58-1.76v-3.55h-1v-.82h1V9l1-.31v1.77h1.52v.82H109v3.38a1.41 1.41 0 0 0 .21.87.82.82 0 0 0 .68.25 1 1 0 0 0 .63-.2ZM14.05 55.66h-1.17l-1.41-2.36a4.53 4.53 0 0 0-.37-.56 2.15 2.15 0 0 0-.37-.37 1.49 1.49 0 0 0-.41-.22 1.89 1.89 0 0 0-.5-.07H9v3.58H8v-8.4h2.51a3.63 3.63 0 0 1 1 .13 2.59 2.59 0 0 1 .81.42 2 2 0 0 1 .54.7A2.61 2.61 0 0 1 13 50.3a2 2 0 0 1-.38.65 2.13 2.13 0 0 1-.58.49 3.12 3.12 0 0 1-.77.32 1.55 1.55 0 0 1 .36.21 1.64 1.64 0 0 1 .3.29 4 4 0 0 1 .28.37l.31.48ZM9 48.15v3h1.34a1.87 1.87 0 0 0 .68-.11 1.46 1.46 0 0 0 .54-.32 1.32 1.32 0 0 0 .36-.51 1.6 1.6 0 0 0 .13-.67 1.35 1.35 0 0 0-.44-1.06 1.88 1.88 0 0 0-1.26-.37ZM19.55 52.9h-4.24a2.3 2.3 0 0 0 .54 1.55 1.87 1.87 0 0 0 1.42.54 2.91 2.91 0 0 0 1.86-.67v.9a3.43 3.43 0 0 1-2.13.58 2.53 2.53 0 0 1-2-.8 3.35 3.35 0 0 1-.72-2.3 3.28 3.28 0 0 1 .79-2.28 2.54 2.54 0 0 1 2-.88 2.24 2.24 0 0 1 1.82.76 3.17 3.17 0 0 1 .65 2.11Zm-1-.82a1.9 1.9 0 0 0-.4-1.29 1.36 1.36 0 0 0-1.1-.46 1.56 1.56 0 0 0-1.15.48 2.25 2.25 0 0 0-.59 1.27ZM20.64 55.44v-1a2.82 2.82 0 0 0 1.73.58q1.26 0 1.26-.84a.68.68 0 0 0-.11-.41 1.17 1.17 0 0 0-.29-.3 2.86 2.86 0 0 0-.43-.23l-.54-.24c-.26-.11-.5-.21-.7-.32a2.22 2.22 0 0 1-.5-.36 1.38 1.38 0 0 1-.31-.46 1.66 1.66 0 0 1-.1-.61 1.38 1.38 0 0 1 .19-.74 1.7 1.7 0 0 1 .52-.55 2.21 2.21 0 0 1 .73-.33 3.07 3.07 0 0 1 .86-.11 3.41 3.41 0 0 1 1.39.27v1a2.7 2.7 0 0 0-1.52-.43 1.88 1.88 0 0 0-.49.06 1.26 1.26 0 0 0-.37.17.78.78 0 0 0-.24.27.67.67 0 0 0-.09.34.75.75 0 0 0 .09.39.83.83 0 0 0 .25.28 1.68 1.68 0 0 0 .4.23l.53.21a6 6 0 0 1 .71.32 2 2 0 0 1 .54.36 1.35 1.35 0 0 1 .35.47 1.46 1.46 0 0 1 .12.62 1.51 1.51 0 0 1-.2.78 1.68 1.68 0 0 1-.52.54 2.26 2.26 0 0 1-.76.32 3.76 3.76 0 0 1-.9.11 3.37 3.37 0 0 1-1.6-.39ZM27.08 54.79v3.63h-1v-8.76h1v1.05a2.27 2.27 0 0 1 2.07-1.19 2.2 2.2 0 0 1 1.81.8 3.31 3.31 0 0 1 .65 2.16 3.69 3.69 0 0 1-.73 2.41 2.43 2.43 0 0 1-2 .91 2 2 0 0 1-1.8-1.01Zm0-2.42v.84a1.78 1.78 0 0 0 .49 1.26 1.72 1.72 0 0 0 2.59-.15 3 3 0 0 0 .5-1.86 2.49 2.49 0 0 0-.46-1.57 1.56 1.56 0 0 0-1.26-.56 1.7 1.7 0 0 0-1.35.58 2.15 2.15 0 0 0-.54 1.46ZM35.66 55.8a2.79 2.79 0 0 1-2.13-.8 3.12 3.12 0 0 1-.79-2.23 3.23 3.23 0 0 1 .82-2.36 3 3 0 0 1 2.24-.85 2.68 2.68 0 0 1 2.09.82 3.29 3.29 0 0 1 .75 2.29 3.21 3.21 0 0 1-.81 2.3 2.82 2.82 0 0 1-2.17.83Zm.07-5.47a1.84 1.84 0 0 0-1.47.63 2.58 2.58 0 0 0-.54 1.73 2.46 2.46 0 0 0 .55 1.69 1.85 1.85 0 0 0 1.46.61 1.77 1.77 0 0 0 1.43-.6 3.23 3.23 0 0 0 0-3.45 1.74 1.74 0 0 0-1.43-.61ZM45.16 55.66h-1v-3.42c0-1.28-.47-1.91-1.4-1.91a1.52 1.52 0 0 0-1.19.54 2 2 0 0 0-.47 1.37v3.42h-1v-6h1v1a2.18 2.18 0 0 1 2-1.13 1.85 1.85 0 0 1 1.51.63 2.84 2.84 0 0 1 .55 1.84ZM46.61 55.44v-1a2.82 2.82 0 0 0 1.73.58q1.26 0 1.26-.84a.76.76 0 0 0-.11-.41 1.17 1.17 0 0 0-.29-.3 2.86 2.86 0 0 0-.43-.23l-.54-.24a6.76 6.76 0 0 1-.7-.32 2.22 2.22 0 0 1-.5-.36 1.38 1.38 0 0 1-.31-.46 1.66 1.66 0 0 1-.1-.61 1.38 1.38 0 0 1 .19-.74 1.7 1.7 0 0 1 .52-.55 2.21 2.21 0 0 1 .73-.33 3.07 3.07 0 0 1 .86-.11 3.41 3.41 0 0 1 1.39.27v1a2.7 2.7 0 0 0-1.52-.43 1.83 1.83 0 0 0-.49.06 1.26 1.26 0 0 0-.37.17.62.62 0 0 0-.24.27.67.67 0 0 0-.09.34.75.75 0 0 0 .09.39.74.74 0 0 0 .25.28 1.68 1.68 0 0 0 .4.23l.53.21a6.81 6.81 0 0 1 .71.32 2.42 2.42 0 0 1 .54.36 1.35 1.35 0 0 1 .35.47 1.46 1.46 0 0 1 .12.62 1.51 1.51 0 0 1-.2.78 1.61 1.61 0 0 1-.53.54 2.21 2.21 0 0 1-.75.32 3.82 3.82 0 0 1-.9.11 3.37 3.37 0 0 1-1.6-.39ZM56.88 52.9h-4.23a2.21 2.21 0 0 0 .54 1.55 1.85 1.85 0 0 0 1.41.55 2.94 2.94 0 0 0 1.87-.67v.9a3.45 3.45 0 0 1-2.09.58 2.52 2.52 0 0 1-2-.82 3.81 3.81 0 0 1 .07-4.58 2.53 2.53 0 0 1 2-.88 2.25 2.25 0 0 1 1.82.76 3.17 3.17 0 0 1 .64 2.11Zm-1-.82a2 2 0 0 0-.4-1.29 1.37 1.37 0 0 0-1.1-.46 1.55 1.55 0 0 0-1.15.48 2.19 2.19 0 0 0-.59 1.27ZM93.79 74.58h-4.45v-8.4h4.26v.89h-3.28v2.79h3v.89h-3v2.94h3.47ZM99.66 68.58l-2 3 2 3h-1.15l-1.18-2c-.08-.12-.16-.27-.27-.45l-.27.45-1.21 2h-1.1l2-2.94-2-3.06h1.11l1.16 2c.09.15.17.31.26.47l1.5-2.52ZM104.88 74.3a3.14 3.14 0 0 1-1.65.42 2.72 2.72 0 0 1-2.07-.84 3 3 0 0 1-.78-2.16 3.3 3.3 0 0 1 .85-2.38 3 3 0 0 1 2.26-.9 3.27 3.27 0 0 1 1.4.29v1a2.4 2.4 0 0 0-1.43-.47 1.92 1.92 0 0 0-1.51.66 2.5 2.5 0 0 0-.59 1.73 2.36 2.36 0 0 0 .55 1.66 1.91 1.91 0 0 0 1.49.61 2.43 2.43 0 0 0 1.48-.52ZM111.15 71.82h-4.24a2.3 2.3 0 0 0 .54 1.55 1.88 1.88 0 0 0 1.42.54 2.89 2.89 0 0 0 1.86-.67v.91a3.47 3.47 0 0 1-2.09.57 2.51 2.51 0 0 1-2-.82 3.83 3.83 0 0 1 .06-4.58 2.54 2.54 0 0 1 2-.88 2.26 2.26 0 0 1 1.83.76 3.18 3.18 0 0 1 .64 2.12Zm-1-.81a2 2 0 0 0-.4-1.3 1.37 1.37 0 0 0-1.1-.46 1.57 1.57 0 0 0-1.16.48 2.24 2.24 0 0 0-.58 1.28ZM113.59 73.71v3.63h-1v-8.76h1v1a2.27 2.27 0 0 1 2.07-1.19 2.2 2.2 0 0 1 1.81.8 3.31 3.31 0 0 1 .65 2.16 3.69 3.69 0 0 1-.73 2.41 2.43 2.43 0 0 1-2 .91 2 2 0 0 1-1.8-.96Zm0-2.42v.84a1.78 1.78 0 0 0 .49 1.26 1.72 1.72 0 0 0 2.59-.15 3 3 0 0 0 .5-1.85 2.45 2.45 0 0 0-.46-1.57 1.54 1.54 0 0 0-1.26-.57 1.7 1.7 0 0 0-1.35.58 2.15 2.15 0 0 0-.54 1.46ZM122.44 74.52a1.76 1.76 0 0 1-.89.19c-1.06 0-1.58-.59-1.58-1.76V69.4h-1v-.82h1v-1.47l1-.31v1.78h1.51v.82h-1.51v3.38a1.37 1.37 0 0 0 .21.86.8.8 0 0 0 .67.26 1 1 0 0 0 .63-.2ZM124.22 67.06a.6.6 0 0 1-.44-.18.61.61 0 0 1-.18-.45.61.61 0 0 1 .62-.62.64.64 0 0 1 .45.18.6.6 0 0 1 .18.44.59.59 0 0 1-.18.44.61.61 0 0 1-.45.19Zm.47 7.52h-1v-6h1ZM129.14 74.72a2.76 2.76 0 0 1-2.12-.84 3.11 3.11 0 0 1-.8-2.23 3.23 3.23 0 0 1 .83-2.36 3 3 0 0 1 2.23-.85 2.68 2.68 0 0 1 2.09.82 3.76 3.76 0 0 1-.05 4.6 2.88 2.88 0 0 1-2.18.86Zm.07-5.47a1.84 1.84 0 0 0-1.47.63 2.63 2.63 0 0 0-.53 1.73 2.47 2.47 0 0 0 .54 1.69 1.85 1.85 0 0 0 1.46.61 1.75 1.75 0 0 0 1.43-.6 3.23 3.23 0 0 0 0-3.45 1.73 1.73 0 0 0-1.43-.61ZM138.64 74.58h-1v-3.42c0-1.28-.46-1.91-1.39-1.91a1.5 1.5 0 0 0-1.19.54 2 2 0 0 0-.48 1.37v3.42h-1v-6h1v1a2.16 2.16 0 0 1 2-1.14 1.84 1.84 0 0 1 1.5.63 2.84 2.84 0 0 1 .52 1.84ZM146.9 74.58h-1v-3.83h-4.34v3.83h-1v-8.4h1v3.68h4.34v-3.68h1ZM153.27 74.58h-1v-.94a2.2 2.2 0 0 1-3.25.61 1.68 1.68 0 0 1-.5-1.26c0-1.13.66-1.78 2-2l1.8-.25c0-1-.41-1.53-1.24-1.53a2.94 2.94 0 0 0-2 .74V69a3.76 3.76 0 0 1 2-.56c1.41 0 2.12.74 2.12 2.24Zm-1-3-1.45.2a2.59 2.59 0 0 0-1 .33 1 1 0 0 0-.34.85.9.9 0 0 0 .32.71 1.16 1.16 0 0 0 .83.28 1.55 1.55 0 0 0 1.18-.5 1.8 1.8 0 0 0 .47-1.27ZM160.06 74.58h-1v-3.42c0-1.28-.47-1.91-1.4-1.91a1.52 1.52 0 0 0-1.19.54 2 2 0 0 0-.47 1.37v3.42h-1v-6h1v1a2.17 2.17 0 0 1 2-1.14 1.85 1.85 0 0 1 1.51.63 2.84 2.84 0 0 1 .52 1.84ZM167 74.58h-1v-1a2.42 2.42 0 0 1-3.87.35 3.28 3.28 0 0 1-.68-2.19 3.57 3.57 0 0 1 .75-2.38 2.48 2.48 0 0 1 2-.9 1.93 1.93 0 0 1 1.8 1V65.7h1Zm-1-2.71V71a1.73 1.73 0 0 0-.48-1.23 1.78 1.78 0 0 0-2.6.14 2.81 2.81 0 0 0-.51 1.78 2.51 2.51 0 0 0 .49 1.64 1.57 1.57 0 0 0 1.3.6 1.64 1.64 0 0 0 1.3-.58 2.17 2.17 0 0 0 .5-1.48ZM169.9 74.58h-1V65.7h1ZM176.66 71.82h-4.23a2.21 2.21 0 0 0 .54 1.55 1.85 1.85 0 0 0 1.42.54 2.93 2.93 0 0 0 1.86-.67v.91a3.52 3.52 0 0 1-2.09.57 2.52 2.52 0 0 1-2-.82 3.81 3.81 0 0 1 .07-4.58 2.53 2.53 0 0 1 2-.88 2.25 2.25 0 0 1 1.82.76 3.18 3.18 0 0 1 .64 2.12Zm-1-.81a2 2 0 0 0-.4-1.3 1.36 1.36 0 0 0-1.1-.46 1.55 1.55 0 0 0-1.15.48 2.19 2.19 0 0 0-.59 1.28ZM181.25 69.55a1.18 1.18 0 0 0-.73-.19 1.23 1.23 0 0 0-1 .58 2.72 2.72 0 0 0-.41 1.58v3.06h-1v-6h1v1.24a2.07 2.07 0 0 1 .63-1 1.4 1.4 0 0 1 .94-.36 1.5 1.5 0 0 1 .58.09ZM153.53 113.58h-1v-3.83h-4.33v3.83h-1v-8.4h1v3.68h4.35v-3.68h1ZM155.34 113.24v-1.16a2.86 2.86 0 0 0 .48.32 3.8 3.8 0 0 0 .59.23 3.39 3.39 0 0 0 .61.15 3.09 3.09 0 0 0 .58.06 2.31 2.31 0 0 0 1.36-.34 1.17 1.17 0 0 0 .44-1 1.1 1.1 0 0 0-.15-.59 1.6 1.6 0 0 0-.41-.46 3.91 3.91 0 0 0-.62-.4l-.78-.4c-.29-.15-.57-.3-.82-.45a3.85 3.85 0 0 1-.66-.51 2 2 0 0 1-.35-2.44 2.1 2.1 0 0 1 .66-.7 3 3 0 0 1 .93-.41 4.29 4.29 0 0 1 1.07-.13 4.08 4.08 0 0 1 1.81.3v1.1a3.29 3.29 0 0 0-1.91-.51 3.47 3.47 0 0 0-.64.06 2 2 0 0 0-.58.22 1.56 1.56 0 0 0-.41.4 1.06 1.06 0 0 0-.15.58 1.22 1.22 0 0 0 .12.56 1.28 1.28 0 0 0 .35.43 3.75 3.75 0 0 0 .57.37l.78.4c.3.15.58.31.85.47a3.59 3.59 0 0 1 .71.54 2.27 2.27 0 0 1 .49.67 1.84 1.84 0 0 1 .18.83 2.15 2.15 0 0 1-.25 1.05 2 2 0 0 1-.65.7 2.94 2.94 0 0 1-1 .39 5.15 5.15 0 0 1-1.13.12h-.5c-.19 0-.39-.06-.59-.1a4.45 4.45 0 0 1-.58-.15 2 2 0 0 1-.4-.2ZM167.08 106.07h-2.43v7.51h-1v-7.51h-2.42v-.89h5.83ZM167.77 113.24v-1.16a2.23 2.23 0 0 0 .48.32 4.51 4.51 0 0 0 1.2.38 3.09 3.09 0 0 0 .58.06 2.27 2.27 0 0 0 1.35-.34 1.15 1.15 0 0 0 .45-1 1.1 1.1 0 0 0-.15-.59 1.76 1.76 0 0 0-.41-.46 4.43 4.43 0 0 0-.62-.4l-.78-.4c-.29-.15-.57-.3-.82-.45a3.2 3.2 0 0 1-.66-.51 2.1 2.1 0 0 1-.45-.62 2.07 2.07 0 0 1-.16-.82 2 2 0 0 1 .25-1 2.13 2.13 0 0 1 .67-.7 3 3 0 0 1 .93-.41 4.29 4.29 0 0 1 1.07-.13 4.08 4.08 0 0 1 1.81.3v1.1a3.29 3.29 0 0 0-1.91-.51 3.47 3.47 0 0 0-.64.06 2 2 0 0 0-.58.22 1.42 1.42 0 0 0-.41.4 1.07 1.07 0 0 0-.16.58 1.22 1.22 0 0 0 .12.56 1.31 1.31 0 0 0 .36.43 3.31 3.31 0 0 0 .57.37c.22.12.48.26.78.4s.58.31.85.47a3.59 3.59 0 0 1 .71.54 2.42 2.42 0 0 1 .48.67 1.84 1.84 0 0 1 .18.83 2.14 2.14 0 0 1-.24 1.05 1.93 1.93 0 0 1-.66.7 2.8 2.8 0 0 1-1 .39 5.24 5.24 0 0 1-1.14.12h-.49c-.19 0-.39-.06-.6-.1a4.74 4.74 0 0 1-.57-.15 2 2 0 0 1-.39-.2ZM147.86 153.26h-1v-3.83h-4.35v3.83h-1v-8.4h1v3.69h4.35v-3.69h1ZM152.72 153.21a1.87 1.87 0 0 1-.89.18c-1.06 0-1.58-.58-1.58-1.75v-3.55h-1v-.83h1v-1.46l1-.31v1.77h1.51v.83h-1.51v3.38a1.37 1.37 0 0 0 .21.86.81.81 0 0 0 .68.26 1 1 0 0 0 .62-.2ZM156.79 153.21a2 2 0 0 1-.9.18c-1 0-1.57-.58-1.57-1.75v-3.55h-1v-.83h1v-1.46l1-.31v1.77h1.51v.83h-1.51v3.38a1.45 1.45 0 0 0 .2.86.84.84 0 0 0 .68.26 1.05 1.05 0 0 0 .63-.2ZM159.06 152.4v3.6h-1v-8.76h1v1.06a2.26 2.26 0 0 1 2.07-1.2 2.19 2.19 0 0 1 1.81.81 3.37 3.37 0 0 1 .65 2.16 3.71 3.71 0 0 1-.73 2.41 2.46 2.46 0 0 1-2 .91 2 2 0 0 1-1.8-.99Zm0-2.42v.84a1.77 1.77 0 0 0 .49 1.26 1.71 1.71 0 0 0 2.59-.15 3.09 3.09 0 0 0 .5-1.86 2.41 2.41 0 0 0-.47-1.57 1.51 1.51 0 0 0-1.25-.57 1.71 1.71 0 0 0-1.35.59A2.11 2.11 0 0 0 159 150ZM164.76 153.05v-1a2.9 2.9 0 0 0 1.73.58c.85 0 1.27-.28 1.27-.85a.72.72 0 0 0-.11-.4 1 1 0 0 0-.29-.3 2.27 2.27 0 0 0-.44-.23l-.53-.22a6.87 6.87 0 0 1-.7-.31 2 2 0 0 1-.51-.37 1.41 1.41 0 0 1-.3-.46 1.57 1.57 0 0 1-.11-.6 1.45 1.45 0 0 1 .2-.75 1.65 1.65 0 0 1 .51-.54 2.26 2.26 0 0 1 .74-.33 3 3 0 0 1 .85-.12 3.46 3.46 0 0 1 1.4.27v1a2.74 2.74 0 0 0-1.53-.44 1.75 1.75 0 0 0-.48.06 1.34 1.34 0 0 0-.38.18.85.85 0 0 0-.24.26.82.82 0 0 0-.08.35.74.74 0 0 0 .33.67 1.89 1.89 0 0 0 .4.22l.53.22c.27.1.51.21.72.31a2.44 2.44 0 0 1 .54.37 1.38 1.38 0 0 1 .34.46 1.54 1.54 0 0 1 .12.63 1.47 1.47 0 0 1-.19.77 1.85 1.85 0 0 1-.53.55 2.54 2.54 0 0 1-.75.32 3.82 3.82 0 0 1-.9.11 3.41 3.41 0 0 1-1.61-.41ZM176.37 153.26h-1.17l-1.41-2.35a5 5 0 0 0-.37-.56 2.69 2.69 0 0 0-.37-.38 1.23 1.23 0 0 0-.41-.21 1.59 1.59 0 0 0-.5-.07h-.81v3.57h-1v-8.4h2.5a3.64 3.64 0 0 1 1 .14 2.23 2.23 0 0 1 .81.42 2 2 0 0 1 .54.7 2.32 2.32 0 0 1 .19 1 2.37 2.37 0 0 1-.13.81 2.22 2.22 0 0 1-.38.65 2.32 2.32 0 0 1-.58.49 3.1 3.1 0 0 1-.77.31 1.55 1.55 0 0 1 .36.21 2 2 0 0 1 .3.28 4.17 4.17 0 0 1 .28.38c.09.13.19.3.3.48Zm-5-7.51v3.05h1.34a2.15 2.15 0 0 0 .68-.11 1.61 1.61 0 0 0 .54-.32 1.57 1.57 0 0 0 .36-.51 1.65 1.65 0 0 0 .13-.68 1.32 1.32 0 0 0-.44-1.05 1.88 1.88 0 0 0-1.26-.38ZM181.87 150.51h-4.24a2.27 2.27 0 0 0 .54 1.54 1.84 1.84 0 0 0 1.42.55 3 3 0 0 0 1.86-.67v.9a3.5 3.5 0 0 1-2.09.58 2.56 2.56 0 0 1-2-.82 3.37 3.37 0 0 1-.73-2.3 3.25 3.25 0 0 1 .8-2.28 2.54 2.54 0 0 1 2-.89 2.24 2.24 0 0 1 1.82.77 3.15 3.15 0 0 1 .65 2.11Zm-1-.82a1.93 1.93 0 0 0-.4-1.29 1.36 1.36 0 0 0-1.1-.47 1.52 1.52 0 0 0-1.15.49 2.22 2.22 0 0 0-.59 1.27ZM188.44 153.26h-1v-1a2.42 2.42 0 0 1-3.87.35 3.32 3.32 0 0 1-.68-2.19 3.6 3.6 0 0 1 .75-2.39 2.48 2.48 0 0 1 2-.9 1.94 1.94 0 0 1 1.8 1v-3.72h1Zm-1-2.71v-.88a1.7 1.7 0 0 0-.48-1.23 1.61 1.61 0 0 0-1.22-.51 1.64 1.64 0 0 0-1.38.65 2.79 2.79 0 0 0-.51 1.78 2.56 2.56 0 0 0 .49 1.64 1.57 1.57 0 0 0 1.3.6 1.66 1.66 0 0 0 1.36-.6 2.2 2.2 0 0 0 .48-1.45ZM190.88 145.74a.64.64 0 0 1-.44-.17.65.65 0 0 1 0-.9.6.6 0 0 1 .44-.18.64.64 0 0 1 .45.18.61.61 0 0 1 .18.45.6.6 0 0 1-.18.44.64.64 0 0 1-.45.18Zm.47 7.52h-1v-6h1ZM196.42 148.24a1.18 1.18 0 0 0-.73-.2 1.22 1.22 0 0 0-1 .58 2.68 2.68 0 0 0-.42 1.59v3h-1v-6h1v1.24a2.08 2.08 0 0 1 .62-1 1.49 1.49 0 0 1 .95-.35 1.65 1.65 0 0 1 .57.08ZM202.29 150.51h-4.24a2.27 2.27 0 0 0 .54 1.54 1.84 1.84 0 0 0 1.42.55 3 3 0 0 0 1.86-.67v.9a3.5 3.5 0 0 1-2.09.58 2.56 2.56 0 0 1-2-.82 3.37 3.37 0 0 1-.73-2.3 3.25 3.25 0 0 1 .8-2.28 2.54 2.54 0 0 1 2-.89 2.26 2.26 0 0 1 1.82.77 3.15 3.15 0 0 1 .65 2.11Zm-1-.82a1.93 1.93 0 0 0-.4-1.29 1.36 1.36 0 0 0-1.1-.47 1.52 1.52 0 0 0-1.15.49 2.22 2.22 0 0 0-.59 1.27ZM207.83 153a3.1 3.1 0 0 1-1.64.42 2.69 2.69 0 0 1-2.07-.84 3 3 0 0 1-.79-2.16 3.33 3.33 0 0 1 .85-2.39 3 3 0 0 1 2.27-.9 3.09 3.09 0 0 1 1.39.3v1a2.45 2.45 0 0 0-1.43-.47 2 2 0 0 0-1.51.66 2.52 2.52 0 0 0-.59 1.73 2.39 2.39 0 0 0 .56 1.67 1.92 1.92 0 0 0 1.48.61 2.45 2.45 0 0 0 1.48-.52ZM212.07 153.21a2 2 0 0 1-.9.18c-1 0-1.58-.58-1.58-1.75v-3.55h-1v-.83h1v-1.46l1-.31v1.77h1.52v.83h-1.52v3.38a1.37 1.37 0 0 0 .21.86.83.83 0 0 0 .68.26 1.05 1.05 0 0 0 .63-.2ZM213.84 145.74a.64.64 0 0 1-.44-.17.65.65 0 0 1 0-.9.6.6 0 0 1 .44-.18.62.62 0 0 1 .63.63.6.6 0 0 1-.18.44.61.61 0 0 1-.45.18Zm.47 7.52h-1v-6h1ZM218.76 153.41a2.76 2.76 0 0 1-2.12-.85 3.09 3.09 0 0 1-.79-2.22 3.27 3.27 0 0 1 .82-2.37 3 3 0 0 1 2.23-.85 2.7 2.7 0 0 1 2.1.83 3.27 3.27 0 0 1 .75 2.29 3.23 3.23 0 0 1-.81 2.3 2.84 2.84 0 0 1-2.18.87Zm.07-5.48a1.83 1.83 0 0 0-1.46.63 2.59 2.59 0 0 0-.54 1.74 2.46 2.46 0 0 0 .54 1.68 1.87 1.87 0 0 0 1.46.62 1.76 1.76 0 0 0 1.44-.61 2.62 2.62 0 0 0 .5-1.71 2.71 2.71 0 0 0-.5-1.74 1.79 1.79 0 0 0-1.44-.61ZM228.27 153.26h-1v-3.42c0-1.27-.47-1.91-1.4-1.91a1.5 1.5 0 0 0-1.19.54 2 2 0 0 0-.47 1.37v3.42h-1v-6h1v1a2.16 2.16 0 0 1 2-1.14 1.86 1.86 0 0 1 1.51.64 2.88 2.88 0 0 1 .52 1.84ZM183 193.24v-1.16a2.86 2.86 0 0 0 .48.32 3.8 3.8 0 0 0 .59.23 3.3 3.3 0 0 0 .62.15 2.91 2.91 0 0 0 .57.06 2.29 2.29 0 0 0 1.36-.34 1.14 1.14 0 0 0 .44-1 1.2 1.2 0 0 0-.14-.59 1.64 1.64 0 0 0-.42-.46 3.91 3.91 0 0 0-.62-.4l-.78-.4-.82-.45a3.85 3.85 0 0 1-.66-.51 2.06 2.06 0 0 1-.35-2.44 2.21 2.21 0 0 1 .66-.7 3 3 0 0 1 .93-.41 4.29 4.29 0 0 1 1.07-.13 4 4 0 0 1 1.81.3v1.1a3.29 3.29 0 0 0-1.91-.51 3.47 3.47 0 0 0-.64.06 1.83 1.83 0 0 0-.57.22 1.31 1.31 0 0 0-.41.4 1 1 0 0 0-.16.58 1.22 1.22 0 0 0 .12.56 1.41 1.41 0 0 0 .35.43 3.75 3.75 0 0 0 .57.37l.78.4c.3.15.59.31.85.47a3.59 3.59 0 0 1 .71.54 2.27 2.27 0 0 1 .49.67 1.84 1.84 0 0 1 .18.83 2.15 2.15 0 0 1-.25 1 2 2 0 0 1-.65.7 2.94 2.94 0 0 1-1 .39 5.15 5.15 0 0 1-1.13.12h-.49c-.2 0-.4-.06-.6-.1a4.45 4.45 0 0 1-.58-.15 2 2 0 0 1-.4-.15ZM192 193.52a1.82 1.82 0 0 1-.9.19c-1.05 0-1.57-.59-1.57-1.76v-3.55h-1v-.82h1v-1.47l1-.31v1.78H192v.82h-1.51v3.38a1.45 1.45 0 0 0 .2.86.84.84 0 0 0 .68.26 1.05 1.05 0 0 0 .63-.2ZM197.6 193.58h-1v-.94a2.2 2.2 0 0 1-3.25.61 1.68 1.68 0 0 1-.5-1.26c0-1.13.66-1.78 2-2l1.8-.25c0-1-.42-1.53-1.24-1.53a2.92 2.92 0 0 0-2 .74v-1a3.76 3.76 0 0 1 2-.56c1.41 0 2.12.74 2.12 2.24Zm-1-3-1.45.2a2.59 2.59 0 0 0-1 .33 1 1 0 0 0-.34.85.92.92 0 0 0 .31.71 1.2 1.2 0 0 0 .84.28 1.55 1.55 0 0 0 1.18-.5 1.8 1.8 0 0 0 .47-1.27ZM202.19 193.52a1.8 1.8 0 0 1-.9.19c-1 0-1.57-.59-1.57-1.76v-3.55h-1v-.82h1v-1.47l1-.31v1.78h1.51v.82h-1.51v3.38a1.45 1.45 0 0 0 .2.86.84.84 0 0 0 .68.26 1 1 0 0 0 .63-.2ZM204 186.06a.59.59 0 0 1-.44-.18.61.61 0 0 1-.18-.45.6.6 0 0 1 .18-.44.59.59 0 0 1 .44-.18.6.6 0 0 1 .44.18.58.58 0 0 1 .19.44.56.56 0 0 1-.19.44.58.58 0 0 1-.44.19Zm.47 7.52h-1v-6h1ZM210.47 193.3a3.1 3.1 0 0 1-1.64.42 2.69 2.69 0 0 1-2.07-.84 3 3 0 0 1-.79-2.16 3.3 3.3 0 0 1 .85-2.38 3 3 0 0 1 2.27-.9 3.23 3.23 0 0 1 1.39.29v1a2.38 2.38 0 0 0-1.43-.47 2 2 0 0 0-1.51.66 2.5 2.5 0 0 0-.59 1.73 2.36 2.36 0 0 0 .56 1.66 1.89 1.89 0 0 0 1.48.61 2.39 2.39 0 0 0 1.48-.52ZM219.6 186.07h-3.28V189h3v.89h-3v3.72h-1v-8.4h4.26ZM221.56 186.06a.6.6 0 0 1-.44-.18.61.61 0 0 1-.18-.45.61.61 0 0 1 .62-.62.61.61 0 0 1 .45.18.6.6 0 0 1 .18.44.63.63 0 0 1-.63.63Zm.47 7.52h-1v-6h1ZM224.94 193.58h-1v-8.88h1ZM231.7 190.82h-4.23a2.21 2.21 0 0 0 .54 1.55 1.85 1.85 0 0 0 1.42.54 2.93 2.93 0 0 0 1.86-.67v.91a3.52 3.52 0 0 1-2.09.57 2.52 2.52 0 0 1-2-.82 3.81 3.81 0 0 1 .07-4.58 2.53 2.53 0 0 1 2-.88 2.25 2.25 0 0 1 1.82.76 3.18 3.18 0 0 1 .64 2.12Zm-1-.81a2 2 0 0 0-.4-1.3 1.36 1.36 0 0 0-1.1-.46 1.55 1.55 0 0 0-1.15.48 2.19 2.19 0 0 0-.59 1.28ZM232.79 193.36v-1a2.84 2.84 0 0 0 1.73.58c.85 0 1.27-.28 1.27-.84a.76.76 0 0 0-.11-.41 1.17 1.17 0 0 0-.29-.3 3 3 0 0 0-.44-.23l-.53-.21a6.76 6.76 0 0 1-.7-.32 2.55 2.55 0 0 1-.51-.36 1.52 1.52 0 0 1-.3-.46 1.66 1.66 0 0 1-.1-.61 1.38 1.38 0 0 1 .19-.74 1.7 1.7 0 0 1 .52-.55 2.21 2.21 0 0 1 .73-.33 3.59 3.59 0 0 1 2.25.16v1a2.71 2.71 0 0 0-1.53-.43 1.75 1.75 0 0 0-.48.06 1.15 1.15 0 0 0-.37.17.68.68 0 0 0-.24.27.67.67 0 0 0-.09.34.75.75 0 0 0 .09.39.8.8 0 0 0 .24.28 1.91 1.91 0 0 0 .4.23l.54.21c.26.11.5.21.71.32a2.82 2.82 0 0 1 .54.36 1.41 1.41 0 0 1 .34.47 1.46 1.46 0 0 1 .12.62 1.5 1.5 0 0 1-.19.78 1.61 1.61 0 0 1-.53.54 2.3 2.3 0 0 1-.75.32 3.82 3.82 0 0 1-.9.11 3.41 3.41 0 0 1-1.61-.42ZM221.16 233.26H220l-1.41-2.35a5 5 0 0 0-.37-.56 2.69 2.69 0 0 0-.37-.38 1.23 1.23 0 0 0-.41-.21 1.59 1.59 0 0 0-.5-.07h-.81v3.57h-1v-8.4h2.51a3.62 3.62 0 0 1 1 .14 2.23 2.23 0 0 1 .81.42 2 2 0 0 1 .54.7 2.32 2.32 0 0 1 .19 1 2.37 2.37 0 0 1-.13.81 2 2 0 0 1-.38.65 2.32 2.32 0 0 1-.58.49 3.1 3.1 0 0 1-.77.31 1.55 1.55 0 0 1 .36.21 1.58 1.58 0 0 1 .3.28 4.17 4.17 0 0 1 .28.38l.31.48Zm-5-7.51v3.05h1.34a2.15 2.15 0 0 0 .68-.11 1.61 1.61 0 0 0 .54-.32 1.43 1.43 0 0 0 .36-.51 1.65 1.65 0 0 0 .13-.68 1.32 1.32 0 0 0-.44-1.05 1.88 1.88 0 0 0-1.26-.38ZM224.34 233.41a2.76 2.76 0 0 1-2.12-.85 3.09 3.09 0 0 1-.79-2.22 3.27 3.27 0 0 1 .82-2.37 3 3 0 0 1 2.23-.85 2.7 2.7 0 0 1 2.1.83 3.27 3.27 0 0 1 .75 2.29 3.23 3.23 0 0 1-.81 2.3 2.84 2.84 0 0 1-2.18.87Zm.07-5.48a1.83 1.83 0 0 0-1.46.63 2.59 2.59 0 0 0-.54 1.74 2.46 2.46 0 0 0 .59 1.7 1.87 1.87 0 0 0 1.46.62 1.76 1.76 0 0 0 1.44-.61 2.62 2.62 0 0 0 .5-1.71 2.71 2.71 0 0 0-.5-1.74 1.79 1.79 0 0 0-1.49-.63ZM233.72 233.26h-1v-.94a2 2 0 0 1-1.85 1.09c-1.43 0-2.14-.86-2.14-2.56v-3.59h.95v3.44c0 1.26.49 1.9 1.46 1.9a1.48 1.48 0 0 0 1.15-.52 2 2 0 0 0 .46-1.36v-3.46h1ZM238.44 233.21a1.92 1.92 0 0 1-.9.18c-1 0-1.57-.58-1.57-1.75v-3.55h-1v-.83h1v-1.46l1-.31v1.77h1.51v.83h-1.51v3.38a1.45 1.45 0 0 0 .2.86.84.84 0 0 0 .68.26 1 1 0 0 0 .63-.2ZM240.22 225.74a.62.62 0 0 1-.44-.17.65.65 0 0 1 0-.9.59.59 0 0 1 .44-.18.6.6 0 0 1 .44.18.58.58 0 0 1 .19.45.58.58 0 0 1-.19.44.6.6 0 0 1-.44.18Zm.47 7.52h-1v-6h1ZM247.61 233.26h-1v-3.42c0-1.27-.46-1.91-1.39-1.91a1.52 1.52 0 0 0-1.2.54 2.05 2.05 0 0 0-.47 1.37v3.42h-1v-6h1v1a2.17 2.17 0 0 1 2-1.14 1.86 1.86 0 0 1 1.51.64 2.82 2.82 0 0 1 .52 1.84ZM254.54 232.78q0 3.32-3.16 3.31a4.31 4.31 0 0 1-1.95-.42v-1a4.06 4.06 0 0 0 1.94.56c1.47 0 2.21-.79 2.21-2.36v-.65a2.43 2.43 0 0 1-3.87.35 3.24 3.24 0 0 1-.68-2.15 3.73 3.73 0 0 1 .74-2.43 2.44 2.44 0 0 1 2-.91 2 2 0 0 1 1.8 1v-.84h1Zm-1-2.23v-.88a1.73 1.73 0 0 0-.48-1.23 1.6 1.6 0 0 0-1.21-.51 1.68 1.68 0 0 0-1.39.65 2.86 2.86 0 0 0-.5 1.81 2.51 2.51 0 0 0 .48 1.61 1.56 1.56 0 0 0 1.28.6 1.63 1.63 0 0 0 1.31-.58 2.12 2.12 0 0 0 .55-1.47ZM251.74 273.23a4.89 4.89 0 0 1-2.32.49 3.74 3.74 0 0 1-2.87-1.15 4.26 4.26 0 0 1-1.08-3 4.46 4.46 0 0 1 1.22-3.26 4.08 4.08 0 0 1 3.07-1.24 4.92 4.92 0 0 1 2 .34v1.05a4 4 0 0 0-2-.5 3.08 3.08 0 0 0-2.35 1 3.66 3.66 0 0 0-.9 2.59 3.41 3.41 0 0 0 .85 2.44 2.85 2.85 0 0 0 2.2.92 4.06 4.06 0 0 0 2.19-.57ZM256.52 273.72a3.66 3.66 0 0 1-2.86-1.18 4.33 4.33 0 0 1-1.08-3.06 4.66 4.66 0 0 1 1.1-3.24 3.83 3.83 0 0 1 3-1.2 3.6 3.6 0 0 1 2.8 1.17 4.37 4.37 0 0 1 1.07 3.06 4.66 4.66 0 0 1-1.09 3.25 3.76 3.76 0 0 1-2.94 1.2Zm.07-7.79a2.73 2.73 0 0 0-2.15.95 4.24 4.24 0 0 0 0 5 2.61 2.61 0 0 0 2.1.95 2.77 2.77 0 0 0 2.18-.91 3.68 3.68 0 0 0 .79-2.52 3.81 3.81 0 0 0-.77-2.57 2.63 2.63 0 0 0-2.15-.9ZM268.2 273.58H267l-1.41-2.36c-.13-.21-.25-.4-.37-.56a2.15 2.15 0 0 0-.37-.37 1.49 1.49 0 0 0-.41-.22 2 2 0 0 0-.5-.06h-.81v3.57h-1v-8.4h2.51a3.63 3.63 0 0 1 1 .13 2.59 2.59 0 0 1 .81.42 2 2 0 0 1 .54.7 2.33 2.33 0 0 1 .19 1 2.28 2.28 0 0 1-.13.8 2 2 0 0 1-.38.65 2 2 0 0 1-.58.49 3.12 3.12 0 0 1-.77.32 1.55 1.55 0 0 1 .36.21 1.64 1.64 0 0 1 .3.29 4 4 0 0 1 .28.37l.31.48Zm-5-7.51v3h1.34a1.9 1.9 0 0 0 .68-.11 1.46 1.46 0 0 0 .54-.32 1.28 1.28 0 0 0 .36-.51 1.6 1.6 0 0 0 .13-.67 1.32 1.32 0 0 0-.44-1.05 1.83 1.83 0 0 0-1.26-.38ZM269 273.24v-1.16a2.86 2.86 0 0 0 .48.32 3.8 3.8 0 0 0 .59.23 3.3 3.3 0 0 0 .62.15 2.91 2.91 0 0 0 .57.06 2.31 2.31 0 0 0 1.36-.34 1.17 1.17 0 0 0 .44-1 1.1 1.1 0 0 0-.15-.59 1.6 1.6 0 0 0-.41-.46 3.91 3.91 0 0 0-.62-.4l-.78-.4c-.29-.15-.57-.3-.82-.45a3.85 3.85 0 0 1-.66-.51 2.06 2.06 0 0 1-.35-2.44 2.21 2.21 0 0 1 .66-.7 3 3 0 0 1 .93-.41 4.29 4.29 0 0 1 1.07-.13 4.08 4.08 0 0 1 1.81.3v1.1a3.29 3.29 0 0 0-1.91-.51 3.47 3.47 0 0 0-.64.06 2 2 0 0 0-.58.22 1.56 1.56 0 0 0-.41.4 1.06 1.06 0 0 0-.15.58 1.22 1.22 0 0 0 .12.56 1.28 1.28 0 0 0 .35.43 3.75 3.75 0 0 0 .57.37l.78.4c.3.15.58.31.85.47a3.59 3.59 0 0 1 .71.54 2.27 2.27 0 0 1 .49.67 1.84 1.84 0 0 1 .18.83 2.15 2.15 0 0 1-.25 1.05 2 2 0 0 1-.65.7 2.94 2.94 0 0 1-1 .39 5.15 5.15 0 0 1-1.13.12h-.5c-.19 0-.39-.06-.59-.1a4.45 4.45 0 0 1-.58-.15 2 2 0 0 1-.4-.2ZM253.45 313.89h-1.09l-.89-2.35h-3.57l-.84 2.35H246l3.22-8.4h1Zm-2.31-3.24-1.32-3.58a3.36 3.36 0 0 1-.12-.56 3.13 3.13 0 0 1-.13.56l-1.31 3.58ZM259.4 313.89h-1v-.95a2 2 0 0 1-1.85 1.09c-1.43 0-2.15-.85-2.15-2.55v-3.59h1v3.44c0 1.26.48 1.9 1.45 1.9a1.49 1.49 0 0 0 1.16-.52 2 2 0 0 0 .45-1.36v-3.46h1ZM264.13 313.83a1.82 1.82 0 0 1-.9.19c-1.05 0-1.58-.58-1.58-1.76v-3.55h-1v-.82h1v-1.46l1-.31v1.77h1.51v.82h-1.51v3.38a1.41 1.41 0 0 0 .2.87.82.82 0 0 0 .68.25 1 1 0 0 0 .63-.2ZM270.39 313.89h-1v-3.45c0-1.25-.46-1.88-1.39-1.88a1.53 1.53 0 0 0-1.19.54 2 2 0 0 0-.48 1.39v3.4h-1V305h1v3.88a2.17 2.17 0 0 1 2-1.14c1.36 0 2 .82 2 2.45ZM277 311.13h-4.23a2.19 2.19 0 0 0 .54 1.55 1.85 1.85 0 0 0 1.41.55 3 3 0 0 0 1.87-.67v.9a3.52 3.52 0 0 1-2.09.57 2.54 2.54 0 0 1-2-.81 3.34 3.34 0 0 1-.73-2.3 3.29 3.29 0 0 1 .8-2.29 2.55 2.55 0 0 1 2-.88 2.28 2.28 0 0 1 1.82.76 3.19 3.19 0 0 1 .64 2.12Zm-1-.81a2 2 0 0 0-.4-1.3 1.4 1.4 0 0 0-1.1-.46 1.52 1.52 0 0 0-1.15.49 2.16 2.16 0 0 0-.59 1.27ZM283.46 313.89h-1v-3.42c0-1.27-.47-1.91-1.4-1.91a1.5 1.5 0 0 0-1.19.54 2 2 0 0 0-.47 1.37v3.42h-1v-6h1v1a2.16 2.16 0 0 1 2-1.14 1.83 1.83 0 0 1 1.51.64 2.86 2.86 0 0 1 .52 1.84ZM288.05 313.83a1.8 1.8 0 0 1-.9.19c-1 0-1.57-.58-1.57-1.76v-3.55h-1v-.82h1v-1.46l1-.31v1.77h1.51v.82h-1.51v3.38a1.49 1.49 0 0 0 .2.87.83.83 0 0 0 .68.25 1 1 0 0 0 .63-.2ZM289.83 306.37a.59.59 0 0 1-.44-.18.57.57 0 0 1-.18-.44.61.61 0 0 1 .18-.45.59.59 0 0 1 .44-.18.6.6 0 0 1 .44.18.58.58 0 0 1 .19.45.58.58 0 0 1-.19.44.6.6 0 0 1-.44.18Zm.47 7.52h-1v-6h1ZM296.33 313.62a3.1 3.1 0 0 1-1.64.41 2.68 2.68 0 0 1-2.07-.83 3 3 0 0 1-.79-2.17 3.32 3.32 0 0 1 .85-2.38 3 3 0 0 1 2.27-.9 3.06 3.06 0 0 1 1.39.3v1a2.45 2.45 0 0 0-1.43-.47 2 2 0 0 0-1.51.66 2.52 2.52 0 0 0-.59 1.73 2.41 2.41 0 0 0 .56 1.67 1.92 1.92 0 0 0 1.48.61 2.4 2.4 0 0 0 1.48-.53ZM302.08 313.89h-1V313a2 2 0 0 1-1.84 1.07 1.93 1.93 0 0 1-1.4-.47 1.65 1.65 0 0 1-.51-1.26c0-1.12.66-1.77 2-2l1.8-.25c0-1-.41-1.53-1.24-1.53a3 3 0 0 0-2 .74v-1a3.68 3.68 0 0 1 2-.57c1.41 0 2.12.75 2.12 2.24Zm-1-3-1.45.2a2.35 2.35 0 0 0-1 .33 1 1 0 0 0-.34.84.93.93 0 0 0 .32.72 1.22 1.22 0 0 0 .83.28 1.52 1.52 0 0 0 1.18-.51 1.77 1.77 0 0 0 .47-1.26ZM306.67 313.83a1.76 1.76 0 0 1-.89.19c-1 0-1.58-.58-1.58-1.76v-3.55h-1v-.82h1v-1.46l1-.31v1.77h1.51v.82h-1.51v3.38a1.41 1.41 0 0 0 .21.87.81.81 0 0 0 .68.25.94.94 0 0 0 .62-.2ZM308.45 306.37a.6.6 0 0 1-.44-.18.57.57 0 0 1-.18-.44.61.61 0 0 1 .18-.45.6.6 0 0 1 .44-.18.64.64 0 0 1 .45.18.61.61 0 0 1 .18.45.6.6 0 0 1-.18.44.64.64 0 0 1-.45.18Zm.47 7.52h-1v-6h1ZM313.37 314a2.76 2.76 0 0 1-2.12-.84 3.11 3.11 0 0 1-.8-2.23 3.26 3.26 0 0 1 .83-2.36 3 3 0 0 1 2.23-.85 2.69 2.69 0 0 1 2.09.83 3.75 3.75 0 0 1-.05 4.59 2.83 2.83 0 0 1-2.18.86Zm.07-5.47a1.8 1.8 0 0 0-1.46.63 2.59 2.59 0 0 0-.54 1.74 2.46 2.46 0 0 0 .54 1.68 1.85 1.85 0 0 0 1.46.62 1.76 1.76 0 0 0 1.43-.61 2.58 2.58 0 0 0 .5-1.72 2.62 2.62 0 0 0-.5-1.73 1.73 1.73 0 0 0-1.43-.58ZM322.87 313.89h-1v-3.42c0-1.27-.46-1.91-1.39-1.91a1.5 1.5 0 0 0-1.19.54 2 2 0 0 0-.48 1.37v3.42h-1v-6h1v1a2.16 2.16 0 0 1 2-1.14 1.82 1.82 0 0 1 1.5.64 2.8 2.8 0 0 1 .52 1.84ZM281.47 353.58h-1.09l-.89-2.36h-3.56l-.84 2.36H274l3.23-8.4h1Zm-2.3-3.24-1.32-3.58a3.65 3.65 0 0 1-.13-.56 3.49 3.49 0 0 1-.14.56l-1.31 3.58ZM287.43 353.58h-1v-.95a2 2 0 0 1-1.85 1.09c-1.43 0-2.14-.85-2.14-2.55v-3.59h.95V351c0 1.27.49 1.9 1.46 1.9a1.45 1.45 0 0 0 1.15-.52 1.94 1.94 0 0 0 .46-1.35v-3.46h1ZM292.15 353.52a1.8 1.8 0 0 1-.9.19c-1.05 0-1.57-.59-1.57-1.76v-3.55h-1v-.82h1v-1.47l1-.31v1.78h1.51v.82h-1.51v3.38a1.45 1.45 0 0 0 .2.86.84.84 0 0 0 .68.26 1 1 0 0 0 .63-.2ZM298.41 353.58h-1v-3.46c0-1.25-.46-1.87-1.39-1.87a1.51 1.51 0 0 0-1.18.54 2 2 0 0 0-.48 1.39v3.4h-1v-8.88h1v3.88a2.18 2.18 0 0 1 2-1.14c1.35 0 2 .81 2 2.44ZM302.73 353.72a2.79 2.79 0 0 1-2.12-.84 3.11 3.11 0 0 1-.8-2.23 3.23 3.23 0 0 1 .83-2.36 3 3 0 0 1 2.23-.85 2.69 2.69 0 0 1 2.1.82 3.32 3.32 0 0 1 .75 2.3 3.25 3.25 0 0 1-.81 2.3 2.87 2.87 0 0 1-2.18.86Zm.07-5.47a1.83 1.83 0 0 0-1.46.63 2.58 2.58 0 0 0-.54 1.73 2.47 2.47 0 0 0 .54 1.69 1.86 1.86 0 0 0 1.46.61 1.79 1.79 0 0 0 1.44-.6 3.23 3.23 0 0 0 0-3.45 1.76 1.76 0 0 0-1.44-.61ZM310.39 348.55a1.18 1.18 0 0 0-.73-.19 1.23 1.23 0 0 0-1 .58 2.64 2.64 0 0 0-.41 1.58v3.06h-1v-6h1v1.24a2.07 2.07 0 0 1 .63-1 1.4 1.4 0 0 1 .94-.36 1.5 1.5 0 0 1 .58.09ZM311.92 346.06a.6.6 0 0 1-.44-.18.61.61 0 0 1-.18-.45.61.61 0 0 1 .62-.62.61.61 0 0 1 .45.18.6.6 0 0 1 .18.44.63.63 0 0 1-.63.63Zm.47 7.52h-1v-6h1ZM318.52 347.85l-3.52 4.91h3.51v.82h-4.92v-.3l3.55-4.88h-3.22v-.82h4.63ZM324.06 353.58h-1v-.94a2.2 2.2 0 0 1-3.25.61 1.65 1.65 0 0 1-.51-1.26c0-1.13.67-1.78 2-2l1.79-.25q0-1.53-1.23-1.53a2.92 2.92 0 0 0-2 .74v-1a3.76 3.76 0 0 1 2-.56c1.41 0 2.12.74 2.12 2.24Zm-1-3-1.44.2a2.59 2.59 0 0 0-1 .33 1 1 0 0 0-.34.85.89.89 0 0 0 .31.71 1.2 1.2 0 0 0 .84.28 1.56 1.56 0 0 0 1.18-.5 1.79 1.79 0 0 0 .46-1.27ZM328.65 353.52a1.82 1.82 0 0 1-.9.19c-1.05 0-1.57-.59-1.57-1.76v-3.55h-1v-.82h1v-1.47l1-.31v1.78h1.51v.82h-1.51v3.38a1.45 1.45 0 0 0 .2.86.84.84 0 0 0 .68.26 1.05 1.05 0 0 0 .63-.2ZM330.42 346.06a.62.62 0 0 1-.44-.18.61.61 0 0 1-.18-.45.6.6 0 0 1 .2-.43.62.62 0 0 1 .44-.18.61.61 0 0 1 .45.18.58.58 0 0 1 .19.44.56.56 0 0 1-.19.44.58.58 0 0 1-.47.18Zm.47 7.52h-1v-6h1ZM335.35 353.72a2.79 2.79 0 0 1-2.13-.84 3.1 3.1 0 0 1-.79-2.23 3.23 3.23 0 0 1 .82-2.36 3 3 0 0 1 2.24-.85 2.68 2.68 0 0 1 2.09.82 3.32 3.32 0 0 1 .75 2.3 3.25 3.25 0 0 1-.81 2.3 2.85 2.85 0 0 1-2.17.86Zm.07-5.47a1.84 1.84 0 0 0-1.47.63 2.58 2.58 0 0 0-.54 1.73 2.42 2.42 0 0 0 .55 1.69 1.85 1.85 0 0 0 1.46.61 1.75 1.75 0 0 0 1.43-.6 3.23 3.23 0 0 0 0-3.45 1.73 1.73 0 0 0-1.43-.61ZM344.85 353.58h-1v-3.42c0-1.28-.47-1.91-1.4-1.91a1.52 1.52 0 0 0-1.19.54 2 2 0 0 0-.47 1.37v3.42h-1v-6h1v1a2.17 2.17 0 0 1 2-1.14 1.85 1.85 0 0 1 1.51.63 2.84 2.84 0 0 1 .52 1.84ZM414.56 353.23a4.89 4.89 0 0 1-2.32.49 3.74 3.74 0 0 1-2.87-1.15 4.26 4.26 0 0 1-1.08-3 4.46 4.46 0 0 1 1.22-3.26 4.08 4.08 0 0 1 3.07-1.24 4.92 4.92 0 0 1 2 .34v1.05a4 4 0 0 0-2-.5 3.08 3.08 0 0 0-2.35 1 3.66 3.66 0 0 0-.9 2.59 3.41 3.41 0 0 0 .85 2.44 2.85 2.85 0 0 0 2.2.92 4.06 4.06 0 0 0 2.19-.57ZM421 353.58h-1v-.95a2 2 0 0 1-1.85 1.09c-1.43 0-2.14-.85-2.14-2.55v-3.59h1V351c0 1.27.49 1.9 1.45 1.9a1.46 1.46 0 0 0 1.16-.52A2 2 0 0 0 420 351v-3.46h1ZM422.57 353.36v-1a2.84 2.84 0 0 0 1.73.58c.85 0 1.27-.28 1.27-.84a.76.76 0 0 0-.11-.41 1.17 1.17 0 0 0-.29-.3 3 3 0 0 0-.44-.23l-.53-.21a6.76 6.76 0 0 1-.7-.32 2.29 2.29 0 0 1-.51-.36 1.52 1.52 0 0 1-.3-.46 1.66 1.66 0 0 1-.11-.61 1.39 1.39 0 0 1 .2-.74 1.78 1.78 0 0 1 .51-.55 2.26 2.26 0 0 1 .74-.33 3.41 3.41 0 0 1 .85-.11 3.46 3.46 0 0 1 1.4.27v1a2.74 2.74 0 0 0-1.53-.43 1.75 1.75 0 0 0-.48.06 1.33 1.33 0 0 0-.38.17.88.88 0 0 0-.24.27.77.77 0 0 0-.08.34.87.87 0 0 0 .08.39.83.83 0 0 0 .25.28 1.91 1.91 0 0 0 .4.23l.53.21c.27.11.51.21.72.32a2.82 2.82 0 0 1 .54.36 1.41 1.41 0 0 1 .34.47 1.46 1.46 0 0 1 .12.62 1.42 1.42 0 0 1-.2.78 1.58 1.58 0 0 1-.52.54 2.26 2.26 0 0 1-.76.32 3.68 3.68 0 0 1-.89.11 3.41 3.41 0 0 1-1.61-.42ZM430.81 353.52a1.8 1.8 0 0 1-.9.19c-1.05 0-1.57-.59-1.57-1.76v-3.55h-1v-.82h1v-1.47l1-.31v1.78h1.51v.82h-1.55v3.38a1.45 1.45 0 0 0 .2.86.84.84 0 0 0 .68.26 1 1 0 0 0 .63-.2ZM434.6 353.72a2.79 2.79 0 0 1-2.12-.84 3.11 3.11 0 0 1-.8-2.23 3.23 3.23 0 0 1 .83-2.36 3 3 0 0 1 2.23-.85 2.69 2.69 0 0 1 2.1.82 3.32 3.32 0 0 1 .75 2.3 3.25 3.25 0 0 1-.81 2.3 2.87 2.87 0 0 1-2.18.86Zm.07-5.47a1.83 1.83 0 0 0-1.46.63 2.58 2.58 0 0 0-.54 1.73 2.47 2.47 0 0 0 .54 1.69 1.86 1.86 0 0 0 1.46.61 1.75 1.75 0 0 0 1.43-.6 3.17 3.17 0 0 0 0-3.45 1.73 1.73 0 0 0-1.43-.61ZM447.65 353.58h-1v-3.45a2.66 2.66 0 0 0-.3-1.44 1.19 1.19 0 0 0-1-.44 1.25 1.25 0 0 0-1 .56 2.12 2.12 0 0 0-.43 1.35v3.42h-1V350c0-1.18-.45-1.77-1.36-1.77a1.24 1.24 0 0 0-1 .53 2.14 2.14 0 0 0-.41 1.38v3.42h-1v-6h1v.95a2 2 0 0 1 1.86-1.09 1.76 1.76 0 0 1 1.08.34 1.73 1.73 0 0 1 .62.9 2.14 2.14 0 0 1 2-1.24c1.32 0 2 .81 2 2.44ZM452.73 353.58h-1v-7.26a1.74 1.74 0 0 1-.33.25 5.06 5.06 0 0 1-.48.29 5.85 5.85 0 0 1-.56.26 5 5 0 0 1-.58.2v-1a5.46 5.46 0 0 0 .68-.23c.23-.1.46-.22.69-.34a5.88 5.88 0 0 0 .65-.39 4.87 4.87 0 0 0 .53-.39h.36ZM517.25 353.23a4.89 4.89 0 0 1-2.32.49 3.74 3.74 0 0 1-2.87-1.15 4.26 4.26 0 0 1-1.08-3 4.5 4.5 0 0 1 1.21-3.26 4.12 4.12 0 0 1 3.08-1.24 4.92 4.92 0 0 1 2 .34v1.05a4 4 0 0 0-2-.5 3.07 3.07 0 0 0-2.35 1 3.66 3.66 0 0 0-.9 2.59 3.44 3.44 0 0 0 .84 2.44 2.87 2.87 0 0 0 2.21.92 4.11 4.11 0 0 0 2.19-.57ZM523.69 353.58h-1v-.95a2 2 0 0 1-1.85 1.09c-1.43 0-2.15-.85-2.15-2.55v-3.59h1V351c0 1.27.48 1.9 1.45 1.9a1.46 1.46 0 0 0 1.16-.52 2 2 0 0 0 .45-1.35v-3.46h1ZM525.26 353.36v-1a2.82 2.82 0 0 0 1.73.58c.84 0 1.27-.28 1.27-.84a.76.76 0 0 0-.11-.41 1.22 1.22 0 0 0-.3-.3 2.44 2.44 0 0 0-.43-.23l-.54-.21c-.26-.11-.49-.21-.7-.32a2.22 2.22 0 0 1-.5-.36 1.35 1.35 0 0 1-.3-.46 1.66 1.66 0 0 1-.11-.61 1.39 1.39 0 0 1 .2-.74 1.78 1.78 0 0 1 .51-.55 2.26 2.26 0 0 1 .74-.33 3.56 3.56 0 0 1 2.24.16v1a2.68 2.68 0 0 0-1.52-.43 1.88 1.88 0 0 0-.49.06 1.4 1.4 0 0 0-.37.17.88.88 0 0 0-.24.27.77.77 0 0 0-.08.34.87.87 0 0 0 .08.39.83.83 0 0 0 .25.28 1.68 1.68 0 0 0 .4.23l.53.21c.27.11.51.21.72.32a2.82 2.82 0 0 1 .54.36 1.41 1.41 0 0 1 .34.47 1.46 1.46 0 0 1 .12.62 1.51 1.51 0 0 1-.2.78 1.58 1.58 0 0 1-.52.54 2.26 2.26 0 0 1-.76.32 3.68 3.68 0 0 1-.89.11 3.39 3.39 0 0 1-1.61-.42ZM533.5 353.52a1.82 1.82 0 0 1-.9.19c-1.05 0-1.57-.59-1.57-1.76v-3.55h-1v-.82h1v-1.47l1-.31v1.78h1.51v.82H532v3.38a1.45 1.45 0 0 0 .2.86.84.84 0 0 0 .68.26 1.05 1.05 0 0 0 .63-.2ZM537.29 353.72a2.77 2.77 0 0 1-2.12-.84 3.11 3.11 0 0 1-.8-2.23 3.23 3.23 0 0 1 .83-2.36 3 3 0 0 1 2.23-.85 2.71 2.71 0 0 1 2.1.82 3.32 3.32 0 0 1 .75 2.3 3.25 3.25 0 0 1-.81 2.3 2.87 2.87 0 0 1-2.18.86Zm.07-5.47a1.81 1.81 0 0 0-1.46.63 2.58 2.58 0 0 0-.54 1.73 2.47 2.47 0 0 0 .54 1.69 1.86 1.86 0 0 0 1.46.61 1.75 1.75 0 0 0 1.43-.6 3.23 3.23 0 0 0 0-3.45 1.73 1.73 0 0 0-1.43-.61ZM550.33 353.58h-1v-3.45a2.57 2.57 0 0 0-.31-1.44 1.16 1.16 0 0 0-1-.44 1.28 1.28 0 0 0-1 .56 2.18 2.18 0 0 0-.43 1.35v3.42h-1V350c0-1.18-.45-1.77-1.36-1.77a1.24 1.24 0 0 0-1 .53 2.14 2.14 0 0 0-.42 1.38v3.42h-1v-6h1v.95a2 2 0 0 1 1.86-1.09 1.73 1.73 0 0 1 1.7 1.24 2.14 2.14 0 0 1 2-1.24c1.32 0 2 .81 2 2.44ZM555.77 353.71a.63.63 0 0 1-.46-.2.6.6 0 0 1-.19-.46.62.62 0 0 1 .19-.46.63.63 0 0 1 .46-.2.65.65 0 0 1 .47.2.62.62 0 0 1 .19.46.6.6 0 0 1-.19.46.65.65 0 0 1-.47.2ZM558.37 353.71a.63.63 0 0 1-.46-.2.64.64 0 0 1-.19-.46.66.66 0 0 1 .19-.46.64.64 0 0 1 .93 0 .62.62 0 0 1 .19.46.6.6 0 0 1-.19.46.63.63 0 0 1-.47.2ZM561 353.71a.63.63 0 0 1-.46-.2.64.64 0 0 1-.19-.46.66.66 0 0 1 .19-.46.67.67 0 0 1 1.13.46.61.61 0 0 1-.2.46.63.63 0 0 1-.47.2ZM434.72 307.23a4.92 4.92 0 0 1-2.32.49 3.72 3.72 0 0 1-2.87-1.15 4.26 4.26 0 0 1-1.08-3 4.45 4.45 0 0 1 1.21-3.26 4.11 4.11 0 0 1 3.08-1.24 5 5 0 0 1 2 .34v1.05a4 4 0 0 0-2-.5 3.07 3.07 0 0 0-2.35 1 3.66 3.66 0 0 0-.9 2.59 3.44 3.44 0 0 0 .84 2.44 2.87 2.87 0 0 0 2.21.92 4.11 4.11 0 0 0 2.19-.57ZM441.15 307.58h-1v-.95a2 2 0 0 1-1.86 1.09c-1.42 0-2.14-.85-2.14-2.55v-3.59h1V305c0 1.27.48 1.9 1.45 1.9a1.47 1.47 0 0 0 1.16-.52 2 2 0 0 0 .45-1.35v-3.46h1ZM442.73 307.36v-1a2.82 2.82 0 0 0 1.73.58q1.26 0 1.26-.84a.68.68 0 0 0-.11-.41 1.17 1.17 0 0 0-.29-.3 2.86 2.86 0 0 0-.43-.23l-.54-.21a6.76 6.76 0 0 1-.7-.32 2.22 2.22 0 0 1-.5-.36 1.38 1.38 0 0 1-.31-.46 1.66 1.66 0 0 1-.1-.61 1.38 1.38 0 0 1 .19-.74 1.7 1.7 0 0 1 .52-.55 2.21 2.21 0 0 1 .73-.33 3.49 3.49 0 0 1 .86-.11 3.41 3.41 0 0 1 1.39.27v1a2.7 2.7 0 0 0-1.52-.43 1.83 1.83 0 0 0-.49.06 1.26 1.26 0 0 0-.37.17.68.68 0 0 0-.24.27.67.67 0 0 0-.09.34.75.75 0 0 0 .09.39.74.74 0 0 0 .25.28 1.68 1.68 0 0 0 .4.23l.53.21c.26.11.5.21.71.32a2.82 2.82 0 0 1 .54.36 1.37 1.37 0 0 1 .47 1.09 1.51 1.51 0 0 1-.2.78 1.61 1.61 0 0 1-.53.54 2.21 2.21 0 0 1-.75.32 3.76 3.76 0 0 1-.9.11 3.37 3.37 0 0 1-1.6-.42ZM451 307.52a1.82 1.82 0 0 1-.9.19c-1.05 0-1.58-.59-1.58-1.76v-3.55h-1v-.82h1v-1.47l1-.31v1.78H451v.82h-1.52v3.38a1.37 1.37 0 0 0 .21.86.83.83 0 0 0 .68.26 1.05 1.05 0 0 0 .63-.2ZM454.76 307.72a2.79 2.79 0 0 1-2.13-.84 3.1 3.1 0 0 1-.79-2.23 3.23 3.23 0 0 1 .82-2.36 3 3 0 0 1 2.24-.85 2.68 2.68 0 0 1 2.09.82 3.32 3.32 0 0 1 .75 2.3 3.25 3.25 0 0 1-.81 2.3 2.85 2.85 0 0 1-2.17.86Zm.07-5.47a1.84 1.84 0 0 0-1.47.63 2.58 2.58 0 0 0-.54 1.73 2.42 2.42 0 0 0 .55 1.69 1.85 1.85 0 0 0 1.46.61 1.75 1.75 0 0 0 1.43-.6 3.23 3.23 0 0 0 0-3.45 1.73 1.73 0 0 0-1.43-.61ZM467.8 307.58h-1v-3.45a2.57 2.57 0 0 0-.31-1.44 1.17 1.17 0 0 0-1-.44 1.28 1.28 0 0 0-1.05.56 2.12 2.12 0 0 0-.43 1.35v3.42h-1V304c0-1.18-.46-1.77-1.37-1.77a1.24 1.24 0 0 0-1 .53 2.2 2.2 0 0 0-.41 1.38v3.42h-1v-6h1v.95a2 2 0 0 1 1.87-1.09 1.71 1.71 0 0 1 1.07.34 1.81 1.81 0 0 1 .63.9 2.13 2.13 0 0 1 2-1.24c1.32 0 2 .81 2 2.44ZM481.42 307.58h-1v-3.45a2.57 2.57 0 0 0-.31-1.44 1.17 1.17 0 0 0-1-.44 1.28 1.28 0 0 0-1.05.56 2.18 2.18 0 0 0-.43 1.35v3.42h-1V304c0-1.18-.45-1.77-1.36-1.77a1.27 1.27 0 0 0-1.05.53 2.2 2.2 0 0 0-.41 1.38v3.42h-1v-6h1v.95a2 2 0 0 1 1.86-1.09 1.73 1.73 0 0 1 1.7 1.24 2.14 2.14 0 0 1 2-1.24c1.32 0 2 .81 2 2.44ZM483.73 300.06a.6.6 0 0 1-.44-.18.61.61 0 0 1-.18-.45.61.61 0 0 1 .62-.62.61.61 0 0 1 .45.18.6.6 0 0 1 .18.44.63.63 0 0 1-.63.63Zm.47 7.52h-1v-6h1ZM491.27 307.58h-1v-1a2.21 2.21 0 0 1-2.06 1.16 2.24 2.24 0 0 1-1.81-.81 3.28 3.28 0 0 1-.68-2.19 3.57 3.57 0 0 1 .75-2.38 2.48 2.48 0 0 1 2-.9 1.91 1.91 0 0 1 1.8 1v-3.76h1Zm-1-2.71V304a1.7 1.7 0 0 0-.49-1.23 1.61 1.61 0 0 0-1.21-.5 1.67 1.67 0 0 0-1.39.64 2.87 2.87 0 0 0-.5 1.78 2.56 2.56 0 0 0 .48 1.64 1.59 1.59 0 0 0 1.3.6 1.61 1.61 0 0 0 1.3-.58 2.13 2.13 0 0 0 .55-1.48ZM498.33 307.58h-1v-1a2.42 2.42 0 0 1-3.87.35 3.28 3.28 0 0 1-.68-2.19 3.57 3.57 0 0 1 .75-2.38 2.48 2.48 0 0 1 2-.9 1.93 1.93 0 0 1 1.8 1v-3.76h1Zm-1-2.71V304a1.73 1.73 0 0 0-.48-1.23 1.64 1.64 0 0 0-1.22-.5 1.66 1.66 0 0 0-1.38.64 2.81 2.81 0 0 0-.5 1.78 2.56 2.56 0 0 0 .48 1.64 1.57 1.57 0 0 0 1.3.6 1.63 1.63 0 0 0 1.3-.58 2.17 2.17 0 0 0 .54-1.48ZM501.24 307.58h-1v-8.88h1ZM508 304.82h-4.24a2.3 2.3 0 0 0 .54 1.55 1.87 1.87 0 0 0 1.42.54 2.93 2.93 0 0 0 1.86-.67v.91a3.5 3.5 0 0 1-2.09.57 2.52 2.52 0 0 1-2-.82 3.36 3.36 0 0 1-.73-2.3 3.29 3.29 0 0 1 .8-2.28 2.53 2.53 0 0 1 2-.88 2.25 2.25 0 0 1 1.82.76 3.18 3.18 0 0 1 .65 2.12Zm-1-.81a2 2 0 0 0-.4-1.3 1.36 1.36 0 0 0-1.1-.46 1.55 1.55 0 0 0-1.15.48 2.25 2.25 0 0 0-.59 1.28ZM517 301.58l-1.8 6h-1l-1.23-4.3a2.84 2.84 0 0 1-.1-.55 2.44 2.44 0 0 1-.12.54l-1.35 4.31h-1l-1.81-6h1l1.24 4.51a3.12 3.12 0 0 1 .08.54h.09a2.29 2.29 0 0 1 .1-.55l1.38-4.5h.88l1.25 4.52a5.29 5.29 0 0 1 .08.54 2.61 2.61 0 0 1 .1-.54l1.22-4.52ZM522.43 307.58h-1v-.94a2.2 2.2 0 0 1-3.25.61 1.64 1.64 0 0 1-.5-1.26c0-1.13.66-1.78 2-2l1.8-.25c0-1-.42-1.53-1.24-1.53a2.92 2.92 0 0 0-2 .74v-1a3.76 3.76 0 0 1 2-.56c1.41 0 2.12.74 2.12 2.24Zm-1-3-1.45.2a2.59 2.59 0 0 0-1 .33 1 1 0 0 0-.34.85.89.89 0 0 0 .31.71 1.2 1.2 0 0 0 .84.28 1.55 1.55 0 0 0 1.18-.5 1.8 1.8 0 0 0 .47-1.27ZM527.37 302.55a1.18 1.18 0 0 0-.73-.19 1.23 1.23 0 0 0-1 .58 2.72 2.72 0 0 0-.41 1.58v3.06h-1v-6h1v1.24a2.07 2.07 0 0 1 .63-1 1.4 1.4 0 0 1 .94-.36 1.5 1.5 0 0 1 .58.09ZM533.23 304.82H529a2.3 2.3 0 0 0 .54 1.55 1.88 1.88 0 0 0 1.42.54 2.89 2.89 0 0 0 1.86-.67v.91a3.47 3.47 0 0 1-2.09.57 2.51 2.51 0 0 1-2-.82 3.83 3.83 0 0 1 .06-4.58 2.54 2.54 0 0 1 2-.88 2.26 2.26 0 0 1 1.83.76 3.18 3.18 0 0 1 .64 2.12Zm-1-.81a2 2 0 0 0-.4-1.3 1.37 1.37 0 0 0-1.1-.46 1.57 1.57 0 0 0-1.16.48A2.24 2.24 0 0 0 529 304ZM534.32 307.36v-1a2.82 2.82 0 0 0 1.73.58q1.26 0 1.26-.84a.76.76 0 0 0-.1-.41 1.22 1.22 0 0 0-.3-.3 2.44 2.44 0 0 0-.43-.23l-.54-.21c-.26-.11-.5-.21-.7-.32a2.22 2.22 0 0 1-.5-.36 1.22 1.22 0 0 1-.3-.46 1.66 1.66 0 0 1-.11-.61 1.39 1.39 0 0 1 .2-.74 1.67 1.67 0 0 1 .51-.55 2.26 2.26 0 0 1 .74-.33 3.56 3.56 0 0 1 2.24.16v1a2.7 2.7 0 0 0-1.52-.43 1.88 1.88 0 0 0-.49.06 1.4 1.4 0 0 0-.37.17.88.88 0 0 0-.24.27.77.77 0 0 0-.08.34.87.87 0 0 0 .08.39.83.83 0 0 0 .25.28 1.68 1.68 0 0 0 .4.23l.53.21c.27.11.51.21.72.32a2.82 2.82 0 0 1 .54.36 1.57 1.57 0 0 1 .34.47 1.46 1.46 0 0 1 .12.62 1.51 1.51 0 0 1-.2.78 1.58 1.58 0 0 1-.52.54 2.26 2.26 0 0 1-.76.32 3.68 3.68 0 0 1-.89.11 3.39 3.39 0 0 1-1.61-.42ZM638 353.58h-4.46v-8.4h4.27v.89h-3.28v2.79h3v.89h-3v2.94H638ZM644.48 353.58h-1v-3.42c0-1.28-.46-1.91-1.39-1.91a1.5 1.5 0 0 0-1.19.54 2 2 0 0 0-.47 1.37v3.42h-1v-6h1v1a2.16 2.16 0 0 1 2-1.14 1.83 1.83 0 0 1 1.5.63 2.84 2.84 0 0 1 .52 1.84ZM651.42 353.58h-1v-1a2.21 2.21 0 0 1-2.06 1.16 2.24 2.24 0 0 1-1.81-.81 3.28 3.28 0 0 1-.67-2.19 3.57 3.57 0 0 1 .75-2.38 2.46 2.46 0 0 1 2-.9 1.91 1.91 0 0 1 1.8 1v-3.76h1Zm-1-2.71V350a1.73 1.73 0 0 0-.48-1.23 1.65 1.65 0 0 0-1.22-.5 1.67 1.67 0 0 0-1.39.64 2.87 2.87 0 0 0-.5 1.78 2.56 2.56 0 0 0 .48 1.64 1.73 1.73 0 0 0 2.6 0 2.13 2.13 0 0 0 .55-1.46ZM654.35 352.71v3.63h-1v-8.76h1v1.05a2.27 2.27 0 0 1 2.07-1.19 2.21 2.21 0 0 1 1.81.8 3.37 3.37 0 0 1 .65 2.16 3.69 3.69 0 0 1-.73 2.41 2.43 2.43 0 0 1-2 .91 2 2 0 0 1-1.8-1.01Zm0-2.42v.84a1.73 1.73 0 0 0 .49 1.26 1.71 1.71 0 0 0 2.59-.15 3 3 0 0 0 .5-1.85 2.39 2.39 0 0 0-.47-1.57 1.51 1.51 0 0 0-1.25-.57 1.7 1.7 0 0 0-1.35.58 2.15 2.15 0 0 0-.54 1.46ZM662.92 353.72a2.79 2.79 0 0 1-2.12-.84 3.1 3.1 0 0 1-.79-2.23 3.23 3.23 0 0 1 .82-2.36 3 3 0 0 1 2.23-.85 2.69 2.69 0 0 1 2.1.82 3.32 3.32 0 0 1 .75 2.3 3.25 3.25 0 0 1-.81 2.3 2.87 2.87 0 0 1-2.18.86Zm.07-5.47a1.83 1.83 0 0 0-1.46.63 2.58 2.58 0 0 0-.54 1.73 2.42 2.42 0 0 0 .55 1.69 1.84 1.84 0 0 0 1.45.61 1.77 1.77 0 0 0 1.44-.6 3.23 3.23 0 0 0 0-3.45 1.75 1.75 0 0 0-1.43-.61ZM667.94 346.06a.6.6 0 0 1-.44-.18.61.61 0 0 1-.18-.45.61.61 0 0 1 .62-.62.61.61 0 0 1 .45.18.6.6 0 0 1 .18.44.63.63 0 0 1-.63.63Zm.47 7.52h-1v-6h1ZM675.33 353.58h-1v-3.42c0-1.28-.46-1.91-1.39-1.91a1.5 1.5 0 0 0-1.19.54 2 2 0 0 0-.48 1.37v3.42h-1v-6h1v1a2.16 2.16 0 0 1 2-1.14 1.83 1.83 0 0 1 1.5.63 2.84 2.84 0 0 1 .52 1.84ZM679.93 353.52a1.82 1.82 0 0 1-.9.19c-1 0-1.57-.59-1.57-1.76v-3.55h-1v-.82h1v-1.47l1-.31v1.78h1.51v.82h-1.51v3.38a1.38 1.38 0 0 0 .2.86.83.83 0 0 0 .68.26 1.05 1.05 0 0 0 .63-.2Z"/></g></svg>