<svg xmlns="http://www.w3.org/2000/svg" style="background:#fff;background-color:#fff;color-scheme:light" width="660" height="281" viewBox="-0.5 -0.5 660 281"><rect fill="#fff" width="100%" height="100%" style="fill:#fff"/><g data-cell-id="0"><g data-cell-id="1"><path fill="#fff" pointer-events="all" style="fill:#fff" d="M0 0h660v280H0z" data-cell-id="_-JV_Y22FU7aa45KHgIh-1"/><svg viewBox="33.702 19.178 639.197 263.956" width="639" height="264" version="1.0" xmlns="http://www.w3.org/2000/svg" x="9.5" y="5.5" style="font-family:initial" data-cell-id="GSocF14XN24j2yU467e_-1"><path style="opacity:1;color:#000;fill:#aaffa7;fill-opacity:1;fill-rule:nonzero;stroke:#000;stroke-width:1;stroke-linecap:butt;stroke-linejoin:miter;marker:none;marker-start:none;marker-mid:none;marker-end:none;stroke-miterlimit:4;stroke-dasharray:none;stroke-dashoffset:0;stroke-opacity:1;visibility:visible;display:inline;overflow:visible" d="M188.899 429.603a7.576 7.576 0 1 1-15.153 0 7.576 7.576 0 1 1 15.153 0z" transform="matrix(1.09685 0 0 1.09674 332.613 -240.849)"/><path style="opacity:1;color:#000;fill:#aaffa7;fill-opacity:1;fill-rule:nonzero;stroke:#000;stroke-width:1;stroke-linecap:butt;stroke-linejoin:miter;marker:none;marker-start:none;marker-mid:none;marker-end:none;stroke-miterlimit:4;stroke-dasharray:none;stroke-dashoffset:0;stroke-opacity:1;visibility:visible;display:inline;overflow:visible" d="M188.899 429.603a7.576 7.576 0 1 1-15.153 0 7.576 7.576 0 1 1 15.153 0z" transform="matrix(1.09685 0 0 1.09674 332.613 -205.415)"/><path style="opacity:1;color:#000;fill:#aaffa7;fill-opacity:1;fill-rule:nonzero;stroke:#000;stroke-width:1.02421272;stroke-linecap:butt;stroke-linejoin:miter;marker:none;marker-start:none;marker-mid:none;marker-end:none;stroke-miterlimit:4;stroke-dasharray:none;stroke-dashoffset:0;stroke-opacity:1;visibility:visible;display:inline;overflow:visible" d="M292.835 62.52h122.979v193.858H292.835z"/><path style="opacity:1;color:#000;fill:#aaffa7;fill-opacity:1;fill-rule:nonzero;stroke:#000;stroke-width:1;stroke-linecap:butt;stroke-linejoin:miter;marker:none;marker-start:none;marker-mid:none;marker-end:none;stroke-miterlimit:4;stroke-dasharray:none;stroke-dashoffset:0;stroke-opacity:1;visibility:visible;display:inline;overflow:visible" d="M188.899 429.603a7.576 7.576 0 1 1-15.153 0 7.576 7.576 0 1 1 15.153 0z" transform="matrix(1.09685 0 0 1.09674 -21.718 -329.431)"/><path style="opacity:1;color:#000;fill:#aaffa7;fill-opacity:1;fill-rule:nonzero;stroke:#000;stroke-width:1;stroke-linecap:butt;stroke-linejoin:miter;marker:none;marker-start:none;marker-mid:none;marker-end:none;stroke-miterlimit:4;stroke-dasharray:none;stroke-dashoffset:0;stroke-opacity:1;visibility:visible;display:inline;overflow:visible" d="M188.899 429.603a7.576 7.576 0 1 1-15.153 0 7.576 7.576 0 1 1 15.153 0z" transform="matrix(1.09685 0 0 1.09674 -21.718 -293.998)"/><path style="opacity:1;color:#000;fill:#aaffa7;fill-opacity:1;fill-rule:nonzero;stroke:#000;stroke-width:1;stroke-linecap:butt;stroke-linejoin:miter;marker:none;marker-start:none;marker-mid:none;marker-end:none;stroke-miterlimit:4;stroke-dasharray:none;stroke-dashoffset:0;stroke-opacity:1;visibility:visible;display:inline;overflow:visible" d="M188.899 429.603a7.576 7.576 0 1 1-15.153 0 7.576 7.576 0 1 1 15.153 0z" transform="matrix(1.09685 0 0 1.09674 332.613 -418.015)"/><path style="opacity:1;color:#000;fill:#aaffa7;fill-opacity:1;fill-rule:nonzero;stroke:#000;stroke-width:1;stroke-linecap:butt;stroke-linejoin:miter;marker:none;marker-start:none;marker-mid:none;marker-end:none;stroke-miterlimit:4;stroke-dasharray:none;stroke-dashoffset:0;stroke-opacity:1;visibility:visible;display:inline;overflow:visible" d="M188.899 429.603a7.576 7.576 0 1 1-15.153 0 7.576 7.576 0 1 1 15.153 0z" transform="matrix(1.09685 0 0 1.09674 332.613 -382.58)"/><path style="opacity:1;color:#000;fill:#aaffa7;fill-opacity:1;fill-rule:nonzero;stroke:#000;stroke-width:.66014719;stroke-linecap:butt;stroke-linejoin:miter;marker:none;marker-start:none;marker-mid:none;marker-end:none;stroke-miterlimit:4;stroke-dasharray:none;stroke-dashoffset:0;stroke-opacity:1;visibility:visible;display:inline;overflow:visible" d="M531.826 35.763h141.072v70.206H531.826z"/><text xml:space="preserve" style="font-size:18;font-style:normal;font-variant:normal;font-weight:400;font-stretch:normal;text-align:start;line-height:125%;writing-mode:lr;text-anchor:start;fill:#000;fill-opacity:1;stroke:none;stroke-width:1px;stroke-linecap:butt;stroke-linejoin:miter;stroke-opacity:1;font-family:Nimbus Sans L" x="545.495" y="57.651"><tspan x="545.495" y="57.651">Server 1</tspan></text><path style="opacity:1;color:#000;fill:#aaffa7;fill-opacity:1;fill-rule:nonzero;stroke:#000;stroke-width:1;stroke-linecap:butt;stroke-linejoin:miter;marker:none;marker-start:none;marker-mid:none;marker-end:none;stroke-miterlimit:4;stroke-dasharray:none;stroke-dashoffset:0;stroke-opacity:1;visibility:visible;display:inline;overflow:visible" d="M188.899 429.603a7.576 7.576 0 1 1-15.153 0 7.576 7.576 0 1 1 15.153 0z" transform="matrix(1.09685 0 0 1.09674 226.314 -329.433)"/><path style="opacity:1;color:#000;fill:#aaffa7;fill-opacity:1;fill-rule:nonzero;stroke:#000;stroke-width:1;stroke-linecap:butt;stroke-linejoin:miter;marker:none;marker-start:none;marker-mid:none;marker-end:none;stroke-miterlimit:4;stroke-dasharray:none;stroke-dashoffset:0;stroke-opacity:1;visibility:visible;display:inline;overflow:visible" d="M188.899 429.603a7.576 7.576 0 1 1-15.153 0 7.576 7.576 0 1 1 15.153 0z" transform="matrix(1.09685 0 0 1.09674 226.314 -293.998)"/><path style="opacity:1;color:#000;fill:#aaffa7;fill-opacity:1;fill-rule:nonzero;stroke:#000;stroke-width:1;stroke-linecap:butt;stroke-linejoin:miter;marker:none;marker-start:none;marker-mid:none;marker-end:none;stroke-miterlimit:4;stroke-dasharray:none;stroke-dashoffset:0;stroke-opacity:1;visibility:visible;display:inline;overflow:visible" d="M188.899 429.603a7.576 7.576 0 1 1-15.153 0 7.576 7.576 0 1 1 15.153 0z" transform="matrix(1.09685 0 0 1.09674 84.582 -329.431)"/><path style="opacity:1;color:#000;fill:#aaffa7;fill-opacity:1;fill-rule:nonzero;stroke:#000;stroke-width:1;stroke-linecap:butt;stroke-linejoin:miter;marker:none;marker-start:none;marker-mid:none;marker-end:none;stroke-miterlimit:4;stroke-dasharray:none;stroke-dashoffset:0;stroke-opacity:1;visibility:visible;display:inline;overflow:visible" d="M188.899 429.603a7.576 7.576 0 1 1-15.153 0 7.576 7.576 0 1 1 15.153 0z" transform="matrix(1.09685 0 0 1.09674 84.582 -293.998)"/><path style="opacity:1;color:#000;fill:#aaffa7;fill-opacity:1;fill-rule:nonzero;stroke:#000;stroke-width:.66014719;stroke-linecap:butt;stroke-linejoin:miter;marker:none;marker-start:none;marker-mid:none;marker-end:none;stroke-miterlimit:4;stroke-dasharray:none;stroke-dashoffset:0;stroke-opacity:1;visibility:visible;display:inline;overflow:visible" d="M531.826 212.929h141.072v70.206H531.826z"/><text xml:space="preserve" style="font-size:18;font-style:normal;font-variant:normal;font-weight:400;font-stretch:normal;text-align:start;line-height:125%;writing-mode:lr;text-anchor:start;fill:#000;fill-opacity:1;stroke:none;stroke-width:1px;stroke-linecap:butt;stroke-linejoin:miter;stroke-opacity:1;font-family:Nimbus Sans L" x="545.495" y="234.816"><tspan x="545.495" y="234.816">Server 2</tspan></text><path style="opacity:1;color:#000;fill:#aaffa7;fill-opacity:1;fill-rule:nonzero;stroke:#000;stroke-width:.66014719;stroke-linecap:butt;stroke-linejoin:miter;marker:none;marker-start:none;marker-mid:none;marker-end:none;stroke-miterlimit:4;stroke-dasharray:none;stroke-dashoffset:0;stroke-opacity:1;visibility:visible;display:inline;overflow:visible" d="M283.795 124.346h141.072v70.206H283.795z"/><path style="opacity:1;color:#000;fill:#aaffa7;fill-opacity:1;fill-rule:nonzero;stroke:#000;stroke-width:.66014719;stroke-linecap:butt;stroke-linejoin:miter;marker:none;marker-start:none;marker-mid:none;marker-end:none;stroke-miterlimit:4;stroke-dasharray:none;stroke-dashoffset:0;stroke-opacity:1;visibility:visible;display:inline;overflow:visible" d="M35.763 124.346h141.072v70.206H35.763z"/><text xml:space="preserve" style="font-size:18;font-style:normal;font-variant:normal;font-weight:400;font-stretch:normal;text-align:start;line-height:125%;writing-mode:lr;text-anchor:start;fill:#000;fill-opacity:1;stroke:none;stroke-width:1px;stroke-linecap:butt;stroke-linejoin:miter;stroke-opacity:1;font-family:Nimbus Sans L" x="49.432" y="146.233"><tspan x="49.432" y="146.233">Client</tspan></text><text xml:space="preserve" style="font-size:18;font-style:normal;font-variant:normal;font-weight:400;font-stretch:normal;text-align:start;line-height:125%;writing-mode:lr;text-anchor:start;fill:#000;fill-opacity:1;stroke:none;stroke-width:1px;stroke-linecap:butt;stroke-linejoin:miter;stroke-opacity:1;font-family:Nimbus Sans L" x="306.322" y="84.226"><tspan x="306.322" y="84.226">NAT</tspan></text><path style="fill:none;fill-opacity:.75;fill-rule:evenodd;stroke:#000;stroke-width:1.77165353;stroke-linecap:round;stroke-linejoin:bevel;stroke-miterlimit:4;stroke-dasharray:none;stroke-opacity:1" d="M186.024 141.732h88.582M256.89 132.874l17.716 8.858-17.716 8.859M503.847 59.413l18.79-6.263-6.263 18.79"/><path style="opacity:1;color:#000;fill:none;fill-opacity:.75;fill-rule:evenodd;stroke:#000;stroke-width:1.77165353;stroke-linecap:round;stroke-linejoin:bevel;marker:none;marker-start:none;marker-mid:none;marker-end:none;stroke-miterlimit:4;stroke-dasharray:none;stroke-dashoffset:0;stroke-opacity:1;visibility:visible;display:inline;overflow:visible" d="m434.055 141.732 88.583-88.582"/><path style="fill:none;fill-opacity:.75;fill-rule:evenodd;stroke:#000;stroke-width:1.77165353;stroke-linecap:round;stroke-linejoin:bevel;stroke-miterlimit:4;stroke-dasharray:none;stroke-opacity:1" d="m452.846 183.43-18.79-6.265 6.263 18.792"/><path style="opacity:1;color:#000;fill:none;fill-opacity:.75;fill-rule:evenodd;stroke:#000;stroke-width:1.77165353;stroke-linecap:round;stroke-linejoin:bevel;marker:none;marker-start:none;marker-mid:none;marker-end:none;stroke-miterlimit:4;stroke-dasharray:none;stroke-dashoffset:0;stroke-opacity:1;visibility:visible;display:inline;overflow:visible" d="m522.638 265.748-88.583-88.583"/><path style="fill:none;fill-opacity:.75;fill-rule:evenodd;stroke:#000;stroke-width:1.77165353;stroke-linecap:round;stroke-linejoin:bevel;stroke-miterlimit:4;stroke-dasharray:none;stroke-opacity:1" d="M274.606 177.165h-88.582M203.74 168.307l-17.716 8.858 17.716 8.859"/><text xml:space="preserve" style="font-size:18px;font-style:italic;font-variant:normal;font-weight:700;font-stretch:normal;text-align:start;line-height:125%;writing-mode:lr-tb;text-anchor:start;fill:#000;fill-opacity:1;stroke:none;stroke-width:1px;stroke-linecap:butt;stroke-linejoin:miter;stroke-opacity:1;font-family:Nimbus Sans L" x="33.702" y="35.178"><tspan x="33.702" y="35.178">&quot;Full Cone&quot; NAT</tspan></text></svg></g></g></svg>