<svg xmlns="http://www.w3.org/2000/svg" width="128" height="128" fill="none"><g clip-path="url(#a)"><g clip-path="url(#b)"><mask id="c" style="mask-type:alpha" maskUnits="userSpaceOnUse" x="5" y="5" width="118" height="118"><path d="M26.939 104.471 7.436 89.843a4.832 4.832 0 0 1-1.952-3.9V42.056a4.833 4.833 0 0 1 1.952-3.9l19.503-14.63a4.416 4.416 0 0 0-1.34 3.901v73.143a4.415 4.415 0 0 0 1.34 3.9Z" fill="#fff"/><path d="M120.342 25.795a4.897 4.897 0 0 0-2.706-.804 4.739 4.739 0 0 0-3.364 1.364l-.341.342L75.019 64 53.49 84.65l-19.918 19.09-.342.342a4.74 4.74 0 0 1-3.364 1.366 4.9 4.9 0 0 1-2.926-.977L7.436 89.843a4.871 4.871 0 0 0 6.63-.732l21.65-25.135L53.49 43.35 84.625 7.19a4.807 4.807 0 0 1 3.68-1.706 4.9 4.9 0 0 1 2.707.805l29.33 19.505Z" fill="#fff"/><path d="m120.342 102.204-29.257 19.505a4.938 4.938 0 0 1-6.41-.877L53.49 84.65 35.716 63.976l-21.65-25.114a4.899 4.899 0 0 0-6.63-.706l19.503-14.628a4.9 4.9 0 0 1 2.926-.977 4.728 4.728 0 0 1 3.364 1.366l.342.342L53.49 43.35 75.02 64l38.911 37.303.341.342a4.741 4.741 0 0 0 3.364 1.364 4.888 4.888 0 0 0 2.706-.804Z" fill="#fff"/><path d="M122.513 29.866v68.268a4.889 4.889 0 0 1-2.171 4.07l-29.257 19.505a4.897 4.897 0 0 0 2.17-4.072V10.362a4.937 4.937 0 0 0-2.243-4.072l29.33 19.505a4.917 4.917 0 0 1 2.171 4.07Z" fill="#fff"/></mask><g mask="url(#c)"><path d="M26.939 104.471 7.436 89.843a4.833 4.833 0 0 1-1.952-3.9V42.056a4.833 4.833 0 0 1 1.952-3.9l19.503-14.63a4.417 4.417 0 0 0-1.34 3.901v73.143a4.415 4.415 0 0 0 1.34 3.9Z" fill="#5E438F"/><g filter="url(#d)"><path d="M120.344 25.795a4.898 4.898 0 0 0-2.706-.804 4.739 4.739 0 0 0-3.364 1.364l-.341.342-20.725 19.87L75.023 64l-21.53 20.65-19.919 19.09-.342.342a4.74 4.74 0 0 1-3.364 1.366 4.9 4.9 0 0 1-2.926-.977L7.438 89.843a4.872 4.872 0 0 0 6.63-.732l10.924-12.677 10.726-12.458L53.492 43.35 84.627 7.19a4.807 4.807 0 0 1 3.68-1.706 4.9 4.9 0 0 1 2.707.805l29.33 19.505Z" fill="url(#e)"/></g><g filter="url(#f)"><path d="M120.344 102.204 91.087 121.71a4.938 4.938 0 0 1-6.41-.878L53.491 84.65 35.718 63.976 24.992 51.542l-10.924-12.68a4.899 4.899 0 0 0-6.63-.705L26.94 23.528a4.9 4.9 0 0 1 2.926-.976 4.728 4.728 0 0 1 3.364 1.366l.342.342 19.919 19.09L75.022 64l18.212 17.457 20.699 19.846.341.342a4.738 4.738 0 0 0 3.364 1.364 4.897 4.897 0 0 0 2.706-.805Z" fill="url(#g)"/></g><g filter="url(#h)"><path d="M122.516 29.865v68.268a4.884 4.884 0 0 1-2.17 4.071l-29.257 19.505a4.897 4.897 0 0 0 2.17-4.072V10.362a4.937 4.937 0 0 0-2.243-4.072l29.33 19.505a4.926 4.926 0 0 1 2.17 4.07Z" fill="url(#i)"/></g></g></g></g><defs><linearGradient id="e" x1="100.572" y1="5.485" x2="13.672" y2="92.947" gradientUnits="userSpaceOnUse"><stop stop-color="#7252AA"/><stop offset="1" stop-color="#7252AA"/></linearGradient><linearGradient id="g" x1="16.458" y1="26.818" x2="98.134" y2="118.246" gradientUnits="userSpaceOnUse"><stop stop-color="#AE7FE2"/><stop offset="1" stop-color="#9A70D4"/></linearGradient><linearGradient id="i" x1="106.419" y1="3.936" x2="106.419" y2="121.611" gradientUnits="userSpaceOnUse"><stop stop-color="#D59DFF"/><stop offset="1" stop-color="#C18EF1"/></linearGradient><filter id="d" x="-2.315" y="-1.829" width="132.411" height="119.468" filterUnits="userSpaceOnUse" color-interpolation-filters="sRGB"><feFlood flood-opacity="0" result="BackgroundImageFix"/><feColorMatrix in="SourceAlpha" values="0 0 0 0 0 0 0 0 0 0 0 0 0 0 0 0 0 0 127 0" result="hardAlpha"/><feOffset dy=".463"/><feGaussianBlur stdDeviation=".463"/><feColorMatrix values="0 0 0 0 0 0 0 0 0 0 0 0 0 0 0 0 0 0 0.24 0"/><feBlend in2="BackgroundImageFix" result="effect1_dropShadow_7198_82473"/><feColorMatrix in="SourceAlpha" values="0 0 0 0 0 0 0 0 0 0 0 0 0 0 0 0 0 0 127 0" result="hardAlpha"/><feOffset dy="2.438"/><feGaussianBlur stdDeviation="4.876"/><feColorMatrix values="0 0 0 0 0 0 0 0 0 0 0 0 0 0 0 0 0 0 0.22 0"/><feBlend in2="effect1_dropShadow_7198_82473" result="effect2_dropShadow_7198_82473"/><feBlend in="SourceGraphic" in2="effect2_dropShadow_7198_82473" result="shape"/></filter><filter id="f" x="-2.315" y="15.238" width="132.411" height="119.466" filterUnits="userSpaceOnUse" color-interpolation-filters="sRGB"><feFlood flood-opacity="0" result="BackgroundImageFix"/><feColorMatrix in="SourceAlpha" values="0 0 0 0 0 0 0 0 0 0 0 0 0 0 0 0 0 0 127 0" result="hardAlpha"/><feOffset dy=".463"/><feGaussianBlur stdDeviation=".463"/><feColorMatrix values="0 0 0 0 0 0 0 0 0 0 0 0 0 0 0 0 0 0 0.24 0"/><feBlend in2="BackgroundImageFix" result="effect1_dropShadow_7198_82473"/><feColorMatrix in="SourceAlpha" values="0 0 0 0 0 0 0 0 0 0 0 0 0 0 0 0 0 0 127 0" result="hardAlpha"/><feOffset dy="2.438"/><feGaussianBlur stdDeviation="4.876"/><feColorMatrix values="0 0 0 0 0 0 0 0 0 0 0 0 0 0 0 0 0 0 0.22 0"/><feBlend in2="effect1_dropShadow_7198_82473" result="effect2_dropShadow_7198_82473"/><feBlend in="SourceGraphic" in2="effect2_dropShadow_7198_82473" result="shape"/></filter><filter id="h" x="61.758" y="-22.968" width="90.014" height="173.934" filterUnits="userSpaceOnUse" color-interpolation-filters="sRGB"><feFlood flood-opacity="0" result="BackgroundImageFix"/><feColorMatrix in="SourceAlpha" values="0 0 0 0 0 0 0 0 0 0 0 0 0 0 0 0 0 0 127 0" result="hardAlpha"/><feOffset/><feGaussianBlur stdDeviation=".244"/><feColorMatrix values="0 0 0 0 0 0 0 0 0 0 0 0 0 0 0 0 0 0 0.24 0"/><feBlend in2="BackgroundImageFix" result="effect1_dropShadow_7198_82473"/><feColorMatrix in="SourceAlpha" values="0 0 0 0 0 0 0 0 0 0 0 0 0 0 0 0 0 0 127 0" result="hardAlpha"/><feOffset/><feGaussianBlur stdDeviation="14.629"/><feColorMatrix values="0 0 0 0 0 0 0 0 0 0 0 0 0 0 0 0 0 0 0.3 0"/><feBlend in2="effect1_dropShadow_7198_82473" result="effect2_dropShadow_7198_82473"/><feBlend in="SourceGraphic" in2="effect2_dropShadow_7198_82473" result="shape"/></filter><clipPath id="a"><path fill="#fff" transform="translate(5.484 5.485)" d="M0 0h117.029v117.029H0z"/></clipPath><clipPath id="b"><path fill="#fff" transform="translate(5.484 5.485)" d="M0 0h117.029v117.029H0z"/></clipPath></defs></svg>